<svg width="516" height="63" viewBox="0 0 516 63" fill="none" xmlns="http://www.w3.org/2000/svg">
<path d="M404.75 51.7899V11.5199L415.04 0.339844V51.7899H404.75Z" fill="white"/>
<path d="M0.140137 51.7902L40.0201 11.9102V51.7902H29.1401V39.1001L16.4501 51.7902H0.140137Z" fill="white"/>
<path d="M300.63 51.7902V11.9102H340.51V51.7902H300.63ZM329.64 40.9202V22.7902H311.51V40.9202H329.64Z" fill="white"/>
<path d="M149.76 22.7902V11.9102H189.64V22.7902H149.76ZM149.76 37.2902V26.4102H189.64V37.2902H149.76ZM149.76 51.7902V40.9102H189.64V51.7902H149.76Z" fill="white"/>
<path d="M424.34 22.7902V11.9102H464.22V22.7902H424.34ZM424.34 37.2902V26.4102H464.22V37.2902H424.34ZM424.34 51.7902V40.9102H464.22V51.7902H424.34Z" fill="white"/>
<path d="M486.82 22.5599V26.9698H515.2V51.7999H476.18V41.1599H504.56V37.6099H476.18V11.9199L486.82 22.5599Z" fill="white"/>
<path d="M486.82 22.5602H515.2L507.13 11.9102H476.17L484.39 22.5602H486.82Z" fill="white"/>
<path d="M259.97 22.5599V26.9698H288.35V51.7999H249.33V41.1599H277.71V37.6099H249.33V11.9199L259.97 22.5599Z" fill="white"/>
<path d="M259.97 22.5602H288.35L280.29 11.9102H249.33L257.54 22.5602H259.97Z" fill="white"/>
<path d="M211.37 22.5599V26.9698H239.75V51.7999H200.73V41.1599H229.11V37.6099H200.73V11.9199L211.37 22.5599Z" fill="white"/>
<path d="M211.37 22.5602H239.75L231.68 11.9102H200.72L208.94 22.5602H211.37Z" fill="white"/>
<path d="M392.69 49.7301L392.42 62.6702L366.21 34.1602L378.16 22.9102C378.07 22.7002 377.92 22.4801 377.68 22.2401C377.45 22.0101 377.27 21.8901 377.14 21.8901H363.79V51.7902C363.83 51.7902 352.43 51.7902 352.35 51.7902L351.78 22.3301L349.81 20.8701L355.15 11.9102H387.95C388.42 11.9102 389.04 12.3101 389.82 13.1201C390.6 13.9301 391.38 14.8602 392.14 15.9202C392.9 16.9802 393.6 18.0301 394.24 19.0701C394.88 20.1101 395.28 20.8401 395.45 21.2601L381.78 36.0701L392.69 49.7301Z" fill="white"/>
<path d="M99.8799 51.7902V11.9102H139.76V22.7902H110.76V40.9202H139.76V51.8002H99.8799V51.7902Z" fill="white"/>
<path d="M50.02 51.7902V11.9102H89.9V22.7902H60.9V40.9202H89.9V51.8002H50.02V51.7902Z" fill="white"/>
</svg>
