<svg width="521" height="130" viewBox="0 0 521 130" fill="none" xmlns="http://www.w3.org/2000/svg">
<path d="M100.61 78.3398H134.45C134.87 78.3398 135.51 78.8798 136.39 79.9698C137.27 81.0598 138.36 82.7798 139.66 85.1498C140.96 87.5098 142.42 90.5798 144.04 94.3598C145.66 98.1398 147.4 102.69 149.25 108.01C149.02 108.52 148.56 109.33 147.86 110.44C147.16 111.55 146.4 112.69 145.57 113.84C144.74 115 143.89 116.02 143.03 116.9C142.17 117.78 141.47 118.22 140.91 118.22H100.61V78.3398ZM132.92 107.24L126.81 92.0198C126.76 91.9298 126.65 91.7299 126.46 91.4299C126.27 91.1299 126.08 90.8198 125.87 90.4898C125.66 90.1698 125.46 89.8798 125.28 89.6198C125.09 89.3698 124.98 89.2398 124.93 89.2398H113.74V107.44H132.85C132.89 107.45 132.92 107.38 132.92 107.24Z" fill="white"/>
<path d="M89.9 127.73L60.9 98.73V118.67H50.02V71.54L79.02 100.54V78.79H89.9V127.73Z" fill="white"/>
<path d="M0.140137 118.22L40.0201 78.3398V118.22H29.1401V105.53L16.4501 118.22H0.140137Z" fill="white"/>
<path d="M197.75 118.22V78.3398H210.95V107.52H234.79L228.68 118.22H197.75Z" fill="white"/>
<path d="M240.33 118.22L280.21 78.3398V118.22H269.33V105.53L256.64 118.22H240.33Z" fill="white"/>
<path d="M385.02 118.22V78.3398H424.9V118.22H385.02ZM414.03 107.35V89.2198H395.9V107.35H414.03Z" fill="white"/>
<path d="M288.57 92.84H317.57V89.21H288.57V78.3301H328.45V103.71H299.45V118.21L288.57 129.09V92.84Z" fill="white"/>
<path d="M433.56 92.84H462.56V89.21H433.56V78.3301H473.44V103.71H444.44V118.21L433.56 129.09V92.84Z" fill="white"/>
<path d="M350.64 118.22V89.2198H336.14V78.3398H376.02V89.2198H361.52V118.22H350.64Z" fill="white"/>
<path d="M492.49 88.9798V93.3898H520.87V118.22H481.85V107.58H510.23V104.03H481.85V78.3398L492.49 88.9798Z" fill="white"/>
<path d="M492.49 88.9798H520.87L512.8 78.3398H481.85L490.06 88.9798H492.49Z" fill="white"/>
<path d="M192.23 0.799805H205.36V29.9798H218.7V0.799805H231.9V34.9098C231.48 36.3898 230.95 37.5898 230.3 38.4898C229.65 39.3898 229.07 40.1198 228.56 40.6798H195.49C194.98 40.1198 194.42 39.3898 193.82 38.4898C193.22 37.5898 192.66 36.3898 192.15 34.9098L192.23 0.799805Z" fill="white"/>
<path d="M46.6899 40.6896V0.80957H86.5699V40.6896H46.6899ZM75.6899 29.8096V11.6796H57.5601V29.8096H75.6899Z" fill="white"/>
<path d="M93.23 40.6896V0.80957L113.17 20.7496L133.11 0.80957V40.6896H122.23V27.9996L113.17 37.0596L104.11 27.9996V40.6896H93.23Z" fill="white"/>
<path d="M139.78 15.3098H168.78V11.6798H139.78V0.799805H179.66V26.1798H150.66V40.6798L139.78 51.5598V15.3098Z" fill="white"/>
<path d="M253.07 40.6896V11.6896H238.57V0.80957H278.45V11.6896H263.95V40.6896H253.07Z" fill="white"/>
<path d="M285.11 11.6798V0.799805H324.99V11.6798H285.11ZM285.11 26.1798V15.2998H324.99V26.1798H285.11ZM285.11 40.6898V29.8098H324.99V40.6898H285.11Z" fill="white"/>
<path d="M394.47 11.4496V15.8596H422.85V40.6896H383.83V30.0496H412.21V26.4996H383.83V0.80957L394.47 11.4496Z" fill="white"/>
<path d="M394.47 11.4498H422.85L414.79 0.799805H383.83L392.04 11.4498H394.47Z" fill="white"/>
<path d="M374.54 38.6198L374.27 51.5598L348.06 23.0498L360.01 11.7998C359.92 11.5898 359.77 11.3698 359.53 11.1298C359.3 10.8998 359.12 10.7798 358.99 10.7798H345.64V40.6798C345.68 40.6798 334.28 40.6798 334.2 40.6798L333.63 11.2198L331.66 9.75983L337 0.799805H369.8C370.27 0.799805 370.89 1.19983 371.67 2.00983C372.45 2.81983 373.23 3.74981 373.99 4.80981C374.75 5.86981 375.45 6.91984 376.09 7.95984C376.73 8.99984 377.13 9.72984 377.3 10.1498L363.63 24.9598L374.54 38.6198Z" fill="white"/>
<path d="M0.140137 40.6896V0.80957H40.0201V11.6896H11.0201V29.8196H40.0201V40.6996H0.140137V40.6896Z" fill="white"/>
</svg>
