<svg width="818" height="150" viewBox="0 0 818 150" fill="none" xmlns="http://www.w3.org/2000/svg">
<path d="M441.69 7.83008H475.53C475.95 7.83008 476.59 8.37008 477.47 9.46008C478.35 10.5501 479.44 12.2701 480.74 14.6401C482.04 17.0001 483.5 20.0701 485.12 23.8501C486.74 27.6301 488.48 32.1801 490.33 37.5001C490.1 38.0101 489.64 38.8202 488.94 39.9302C488.24 41.0402 487.48 42.1801 486.65 43.3301C485.82 44.4901 484.97 45.5101 484.11 46.3901C483.25 47.2701 482.55 47.7101 481.99 47.7101H441.69V7.83008ZM474 36.7401L467.89 21.5201C467.84 21.4301 467.73 21.2302 467.54 20.9302C467.35 20.6302 467.16 20.3201 466.95 19.9901C466.74 19.6701 466.54 19.3801 466.36 19.1201C466.17 18.8701 466.06 18.7401 466.01 18.7401H454.82V36.9401H473.93C473.97 36.9401 474 36.8701 474 36.7401Z" fill="white"/>
<path d="M431.79 56.9399L402.79 27.9399V47.88H391.91V0.75L420.91 29.75V8H431.79V56.9399Z" fill="white"/>
<path d="M342.02 47.7101L381.9 7.83008V47.7101H371.02V35.0201L358.33 47.7101H342.02Z" fill="white"/>
<path d="M169.12 43.7101L154.68 7.83008H167.93L175.49 26.5801L183.24 7.83008H196.49L179.17 47.7101C177.17 47.2101 175.36 46.6602 173.73 46.0502C172.12 45.4502 170.58 44.6701 169.12 43.7101Z" fill="white"/>
<path d="M206.5 18.7101V7.83008H246.38V18.7101H206.5ZM206.5 33.2101V22.3301H246.38V33.2101H206.5ZM206.5 47.7101V36.8301H246.38V47.7101H206.5Z" fill="white"/>
<path d="M49.1602 18.7101V7.83008H89.0402V18.7101H49.1602ZM49.1602 33.2101V22.3301H89.0402V33.2101H49.1602ZM49.1602 47.7101V36.8301H89.0402V47.7101H49.1602Z" fill="white"/>
<path d="M10.7802 18.4701V22.8801H39.1602V47.7101H0.140137V37.0701H28.5201V33.5201H0.140137V7.83008L10.7802 18.4701Z" fill="white"/>
<path d="M10.7802 18.4701H39.1602L31.1001 7.83008H0.140137L8.3501 18.4701H10.7802Z" fill="white"/>
<path d="M141.92 45.6501L141.65 58.5901L115.44 30.0801L127.39 18.8301C127.3 18.6201 127.15 18.4002 126.91 18.1602C126.68 17.9302 126.5 17.8102 126.37 17.8102H113.02V47.7101C113.06 47.7101 101.66 47.7101 101.58 47.7101L101.01 18.2501L99.04 16.7902L104.38 7.83008H137.18C137.65 7.83008 138.27 8.23016 139.05 9.04016C139.83 9.85016 140.61 10.7801 141.37 11.8401C142.13 12.9001 142.83 13.9501 143.47 14.9901C144.11 16.0301 144.51 16.7602 144.68 17.1802L131.01 31.9901L141.92 45.6501Z" fill="white"/>
<path d="M299.26 45.6501L298.99 58.5901L272.78 30.0801L284.73 18.8301C284.64 18.6201 284.49 18.4002 284.25 18.1602C284.02 17.9302 283.84 17.8102 283.71 17.8102H270.36V47.7101C270.4 47.7101 259 47.7101 258.92 47.7101L258.35 18.2501L256.38 16.7902L261.72 7.83008H294.52C294.99 7.83008 295.61 8.23016 296.39 9.04016C297.17 9.85016 297.95 10.7801 298.71 11.8401C299.47 12.9001 300.17 13.9501 300.81 14.9901C301.45 16.0301 301.85 16.7602 302.02 17.1802L288.35 31.9901L299.26 45.6501Z" fill="white"/>
<path d="M627.96 129.25V89.3696L647.9 109.31L667.84 89.3696V129.25H656.96V116.56L647.9 125.62L638.84 116.56V129.25H627.96Z" fill="white"/>
<path d="M397.87 100.25V89.3696H437.75V100.25H397.87ZM397.87 114.75V103.87H437.75V114.75H397.87ZM397.87 129.25V118.37H437.75V129.25H397.87Z" fill="white"/>
<path d="M677.85 100.25V89.3696H717.73V100.25H677.85ZM677.85 114.75V103.87H717.73V114.75H677.85ZM677.85 129.25V118.37H717.73V129.25H677.85Z" fill="white"/>
<path d="M792.11 129.25V100.25H777.61V89.3696H817.49V100.25H802.99V129.25H792.11Z" fill="white"/>
<path d="M557.8 129.25V88.9797L568.08 77.7998V129.25H557.8Z" fill="white"/>
<path d="M508.13 89.3696H521.26V118.55H534.6V89.3696H547.8V123.48C547.38 124.96 546.85 126.16 546.2 127.06C545.55 127.96 544.97 128.69 544.46 129.25H511.39C510.88 128.69 510.32 127.96 509.72 127.06C509.12 126.16 508.56 124.96 508.05 123.48L508.13 89.3696Z" fill="white"/>
<path d="M767.61 138.48L738.61 109.48V129.42H727.73V82.29L756.73 111.29V89.54H767.61V138.48Z" fill="white"/>
<path d="M578.08 103.87H607.08V100.24H578.08V89.3599H617.96V114.74H588.96V129.24L578.08 140.12V103.87Z" fill="white"/>
<path d="M447.75 129.25V89.3696H487.63V129.25H447.75ZM476.75 118.38V100.25H458.62V118.38H476.75Z" fill="white"/>
<path d="M487.51 117.13C486.1 117.05 484.67 117 483.24 116.99C481.64 116.99 480.04 116.99 478.49 117.42C478.5 117.51 478.52 117.59 478.54 117.7C479.12 120.41 478.58 124.12 478.62 126.92C478.63 127.75 478.54 128.51 478.38 129.22H480.49V149.3L492.22 128.94V119.1H487.51V117.13Z" fill="white"/>
<path d="M152.96 127.06C152.46 126.16 152 124.97 151.57 123.48V100.76L149.78 99.1602C150.43 97.2102 151.13 95.4401 151.86 93.8501C152.59 92.2501 153.42 90.7601 154.35 89.3701H162.55V118.55H168.62V89.3701H179.54V118.55H185.84V89.3701H196.82V123.48C196.47 124.96 196.03 126.15 195.49 127.06C194.95 127.96 194.47 128.69 194.05 129.25H179.55V125.22C179.43 125.31 179.12 125.48 178.6 125.71C178.08 125.94 177.45 126.21 176.72 126.51C175.99 126.81 175.2 127.12 174.35 127.45C173.5 127.78 172.71 128.08 171.98 128.35C171.25 128.63 170.61 128.85 170.07 129.01C169.53 129.17 169.2 129.25 169.09 129.25H154.36C153.93 128.7 153.46 127.97 152.96 127.06Z" fill="white"/>
<path d="M50.02 100.25V89.3701H89.9V100.25H50.02ZM50.02 114.75V103.87H89.9V114.75H50.02ZM50.02 129.25V118.37H89.9V129.25H50.02Z" fill="white"/>
<path d="M114.41 129.25V100.25H99.9102V89.3701H139.79V100.25H125.29V129.25H114.41Z" fill="white"/>
<path d="M323.42 114.75V129.25H312.54V89.3701H323.42V103.87L337.92 89.3701H354.23L334.29 109.31L357.86 132.88V149.2L323.42 114.75Z" fill="white"/>
<path d="M40.0201 138.48L11.0201 109.48V129.42H0.140137V82.29L29.1401 111.29V89.54H40.0201V138.48Z" fill="white"/>
<path d="M206.82 129.25V89.3701H246.7V129.25H206.82ZM235.82 118.38V100.25H217.69V118.38H235.82Z" fill="white"/>
<path d="M299.58 127.19L299.31 140.13L273.1 111.62L285.05 100.37C284.96 100.16 284.81 99.9401 284.57 99.7001C284.34 99.4701 284.16 99.3501 284.03 99.3501H270.68V129.25C270.72 129.25 259.32 129.25 259.24 129.25L258.67 99.7902L256.7 98.3301L262.04 89.3701H294.84C295.31 89.3701 295.93 89.7701 296.71 90.5801C297.49 91.3901 298.27 92.3201 299.03 93.3801C299.79 94.4401 300.49 95.4902 301.13 96.5302C301.77 97.5702 302.17 98.3001 302.34 98.7201L288.67 113.53L299.58 127.19Z" fill="white"/>
</svg>
