<svg width="420" height="157" viewBox="0 0 420 157" fill="none" xmlns="http://www.w3.org/2000/svg">
<path d="M49.8999 11.5698H86.8599L80.8199 22.2698H63.0299V26.7198H82.2799L76.2399 37.4198H63.0399V45.1298C63.0899 45.1298 62.8299 45.2798 62.2799 45.5798C61.7199 45.8798 60.9899 46.2698 60.0899 46.7598C59.1899 47.2498 58.1999 47.7598 57.1399 48.2898C56.0699 48.8198 55.0699 49.3298 54.1199 49.8198C53.1699 50.3098 52.3499 50.6998 51.6499 50.9998C50.9599 51.2998 50.5599 51.4498 50.4699 51.4498H49.9099V22.2698V11.5698H49.8999Z" fill="white"/>
<path d="M96.8599 11.5698H133.82L127.78 22.2698H109.99V26.7198H129.24L123.2 37.4198H110V45.1298C110.05 45.1298 109.79 45.2798 109.24 45.5798C108.68 45.8798 107.95 46.2698 107.05 46.7598C106.15 47.2498 105.16 47.7598 104.1 48.2898C103.03 48.8198 102.03 49.3298 101.08 49.8198C100.13 50.3098 99.3099 50.6998 98.6099 50.9998C97.9199 51.2998 97.5199 51.4498 97.4299 51.4498H96.8699V22.2698V11.5698H96.8599Z" fill="white"/>
<path d="M0 51.4498V11.5698H39.89V51.4498H0ZM29.01 40.5698V22.4498H10.88V40.5798L29.01 40.5698Z" fill="white"/>
<path d="M143.67 51.45V11.18L153.95 0V51.45H143.67Z" fill="white"/>
<path d="M213.84 22.4498V11.5698H253.72V22.4498H213.84ZM213.84 36.9498V26.0698H253.72V36.9498H213.84ZM213.84 51.4498V40.5698H253.72V51.4498H213.84Z" fill="white"/>
<path d="M163.95 51.4498V11.5698H203.83V22.4498H174.83V40.5798H203.83V51.4598L163.95 51.4498Z" fill="white"/>
<path d="M230.1 136.17V96.29L250.04 116.23L269.98 96.29V136.17H259.1V123.48L250.04 132.54L240.98 123.48V136.17H230.1Z" fill="white"/>
<path d="M0 107.17V96.29H39.89V107.17H0ZM0 121.67V110.79H39.89V121.67H0ZM0 136.17V125.29H39.89V136.17H0Z" fill="white"/>
<path d="M279.98 107.17V96.29H319.86V107.17H279.98ZM279.98 121.67V110.79H319.86V121.67H279.98ZM279.98 136.17V125.29H319.86V136.17H279.98Z" fill="white"/>
<path d="M394.25 136.17V107.17H379.75V96.29H419.63V107.17H405.13V136.17H394.25Z" fill="white"/>
<path d="M159.94 136.17V95.9002L170.22 84.7202V136.17H159.94Z" fill="white"/>
<path d="M110.26 96.29H123.39V125.47H136.73V96.29H149.93V130.4C149.51 131.88 148.98 133.08 148.33 133.98C147.68 134.88 147.1 135.61 146.59 136.17H113.52C113.01 135.61 112.45 134.88 111.85 133.98C111.25 133.08 110.69 131.88 110.18 130.4L110.26 96.29Z" fill="white"/>
<path d="M369.75 145.4L340.75 116.4V136.34H329.87V89.2104L358.87 118.21V96.4604H369.75V145.4Z" fill="white"/>
<path d="M180.22 110.8H209.22V107.17H180.22V96.29H220.1V121.67H191.1V136.17L180.22 147.05V110.8Z" fill="white"/>
<path d="M49.8901 136.17V96.29H89.7701V136.17H49.8901ZM78.8901 125.3V107.17H60.7601V125.3H78.8901Z" fill="white"/>
<path d="M89.65 124.06C88.24 123.98 86.81 123.93 85.38 123.92C83.78 123.92 82.18 123.92 80.63 124.35C80.64 124.44 80.66 124.52 80.68 124.63C81.26 127.34 80.72 131.05 80.76 133.85C80.77 134.68 80.68 135.44 80.52 136.15H82.63V156.23L94.36 135.87V126.03H89.65V124.06Z" fill="white"/>
</svg>
