<svg width="472" height="133" viewBox="0 0 472 133" fill="none" xmlns="http://www.w3.org/2000/svg">
<path d="M226.05 11.2194H236.93V25.7194H255.06V11.2194L265.94 0.339355V51.0994H255.06V36.5994H236.93V51.0994L226.05 61.9794V11.2194Z" fill="white"/>
<path d="M434.54 52.0695V12.1895H447.74V41.3695H471.57L465.46 52.0695H434.54Z" fill="white"/>
<path d="M382.8 52.0695L422.68 12.1895V52.0695H411.8V39.3795L399.11 52.0695H382.8Z" fill="white"/>
<path d="M155.88 51.7195V11.4495L166.17 0.269531V51.7195H155.88Z" fill="white"/>
<path d="M50.3599 23.0695V12.1895H90.2399V23.0695H50.3599ZM50.3599 37.5695V26.6895H90.2399V37.5695H50.3599ZM50.3599 52.0695V41.1895H90.2399V52.0695H50.3599Z" fill="white"/>
<path d="M276.25 23.0695V12.1895H316.13V23.0695H276.25ZM276.25 37.5695V26.6895H316.13V37.5695H276.25ZM276.25 52.0695V41.1895H316.13V52.0695H276.25Z" fill="white"/>
<path d="M0.47998 26.6896H29.48V23.0597H0.47998V12.1797H40.36V37.5597H11.36V52.0597L0.47998 62.9396C0.47998 62.9396 0.47998 26.6896 0.47998 26.6896Z" fill="white"/>
<path d="M176.17 26.6896H205.17V23.0597H176.17V12.1797H216.05V37.5597H187.05V52.0597L176.17 62.9396V26.6896Z" fill="white"/>
<path d="M143.12 50.0095L142.85 62.9495L116.64 34.4395L128.59 23.1895C128.5 22.9795 128.35 22.7595 128.11 22.5195C127.88 22.2895 127.7 22.1696 127.57 22.1696H114.22V52.0695C114.26 52.0695 102.86 52.0695 102.78 52.0695L102.21 22.6095L100.24 21.1495L105.58 12.1895H138.38C138.85 12.1895 139.47 12.5895 140.25 13.3995C141.03 14.2095 141.81 15.1395 142.57 16.1995C143.33 17.2595 144.03 18.3095 144.67 19.3495C145.31 20.3895 145.71 21.1196 145.88 21.5396L132.21 36.3495L143.12 50.0095Z" fill="white"/>
<path d="M370.04 50.0095L369.77 62.9495L343.56 34.4395L355.51 23.1895C355.42 22.9795 355.27 22.7595 355.03 22.5195C354.8 22.2895 354.62 22.1696 354.49 22.1696H341.14V52.0695C341.18 52.0695 329.78 52.0695 329.7 52.0695L329.13 22.6095L327.16 21.1495L332.5 12.1895H365.3C365.77 12.1895 366.39 12.5895 367.17 13.3995C367.95 14.2095 368.73 15.1395 369.49 16.1995C370.25 17.2595 370.95 18.3095 371.59 19.3495C372.23 20.3895 372.63 21.1196 372.8 21.5396L359.13 36.3495L370.04 50.0095Z" fill="white"/>
<path d="M123.44 128.479L109 92.5991H122.25L129.81 111.349L137.56 92.5991H150.81L133.49 132.479C131.49 131.979 129.68 131.429 128.05 130.819C126.44 130.219 124.9 129.439 123.44 128.479Z" fill="white"/>
<path d="M0.47998 92.5991H34.32C34.74 92.5991 35.38 93.1391 36.26 94.2291C37.14 95.3191 38.23 97.0392 39.53 99.4092C40.83 101.769 42.29 104.839 43.91 108.619C45.53 112.399 47.27 116.949 49.12 122.269C48.89 122.779 48.43 123.589 47.73 124.699C47.03 125.809 46.27 126.949 45.44 128.099C44.61 129.259 43.76 130.279 42.9 131.159C42.04 132.039 41.34 132.479 40.78 132.479H0.47998V92.5991ZM32.79 121.509L26.68 106.289C26.63 106.199 26.52 105.999 26.33 105.699C26.14 105.399 25.95 105.089 25.74 104.759C25.53 104.439 25.33 104.149 25.15 103.889C24.96 103.639 24.85 103.509 24.8 103.509H13.61V121.709H32.72C32.76 121.719 32.79 121.649 32.79 121.509Z" fill="white"/>
<path d="M161.53 132.489V92.2092L171.82 81.0293V132.489H161.53Z" fill="white"/>
<path d="M59.1201 103.479V92.5991H99.0001V103.479H59.1201ZM59.1201 117.979V107.099H99.0001V117.979H59.1201ZM59.1201 132.489V121.609H99.0001V132.489H59.1201Z" fill="white"/>
<path d="M233.4 103.479V92.5991H273.28V103.479H233.4ZM233.4 117.979V107.099H273.28V117.979H233.4ZM233.4 132.489V121.609H273.28V132.489H233.4Z" fill="white"/>
<path d="M295.58 103.249V107.659H323.96V132.489H284.94V121.849H313.32V118.299H284.94V92.6094L295.58 103.249Z" fill="white"/>
<path d="M295.58 103.249H323.96L315.89 92.5991H284.94L293.15 103.249H295.58Z" fill="white"/>
<path d="M183.91 132.559V92.6792H223.79V103.559H194.79V121.689H223.79V132.569H183.91V132.559Z" fill="white"/>
</svg>
