<svg width="680" height="151" viewBox="0 0 680 151" fill="none" xmlns="http://www.w3.org/2000/svg">
<path d="M490.43 130.74V90.8604L510.37 110.8L530.31 90.8604V130.74H519.43V118.05L510.37 127.11L501.31 118.05V130.74H490.43Z" fill="white"/>
<path d="M260.34 101.73V90.8501H300.22V101.73H260.34ZM260.34 116.23V105.35H300.22V116.23H260.34ZM260.34 130.74V119.86H300.22V130.74H260.34Z" fill="white"/>
<path d="M540.31 101.73V90.8501H580.19V101.73H540.31ZM540.31 116.23V105.35H580.19V116.23H540.31ZM540.31 130.74V119.86H580.19V130.74H540.31Z" fill="white"/>
<path d="M654.58 130.74V101.74H640.08V90.8604H679.96V101.74H665.46V130.74H654.58Z" fill="white"/>
<path d="M420.27 130.74V90.4603L430.55 79.2803V130.74H420.27Z" fill="white"/>
<path d="M370.6 90.8604H383.73V120.04H397.07V90.8604H410.27V124.97C409.85 126.45 409.32 127.65 408.67 128.55C408.02 129.45 407.44 130.18 406.93 130.74H373.86C373.35 130.18 372.79 129.45 372.19 128.55C371.59 127.65 371.03 126.45 370.52 124.97L370.6 90.8604Z" fill="white"/>
<path d="M630.08 139.961L601.08 110.961V130.901H590.2V83.7705L619.2 112.771V91.0205H630.08V139.961Z" fill="white"/>
<path d="M440.55 105.36H469.55V101.73H440.55V90.8501H480.43V116.23H451.43V130.73L440.55 141.61V105.36Z" fill="white"/>
<path d="M310.22 130.74V90.8604H350.1V130.74H310.22ZM339.22 119.86V101.73H321.09V119.86H339.22Z" fill="white"/>
<path d="M349.98 118.62C348.57 118.54 347.14 118.49 345.71 118.48C344.11 118.48 342.51 118.48 340.96 118.91C340.97 119 340.99 119.08 341.01 119.19C341.59 121.9 341.05 125.61 341.09 128.41C341.1 129.24 341.01 130 340.85 130.71H342.96V150.79L354.69 130.43V120.59H349.98V118.62Z" fill="white"/>
<path d="M51.9902 130.74V90.4603L62.2702 79.2803V130.74H51.9902Z" fill="white"/>
<path d="M71.9399 90.8604H105.78C106.2 90.8604 106.84 91.4004 107.72 92.4904C108.6 93.5804 109.69 95.3004 110.99 97.6704C112.29 100.03 113.75 103.1 115.37 106.88C116.99 110.66 118.73 115.21 120.58 120.53C120.35 121.04 119.89 121.85 119.19 122.96C118.49 124.07 117.73 125.21 116.9 126.36C116.07 127.52 115.22 128.54 114.36 129.42C113.5 130.3 112.8 130.74 112.24 130.74H71.9399V90.8604ZM104.25 119.76L98.1399 104.54C98.0899 104.45 97.9799 104.25 97.7899 103.95C97.5999 103.65 97.4099 103.34 97.1999 103.01C96.9899 102.69 96.7899 102.4 96.6099 102.14C96.4199 101.89 96.3099 101.76 96.2599 101.76H85.0699V119.96H104.18C104.22 119.97 104.25 119.9 104.25 119.76Z" fill="white"/>
<path d="M130.57 101.73V90.8501H170.45V101.73H130.57ZM130.57 116.24V105.36H170.45V116.24H130.57ZM130.57 130.74V119.86H170.45V130.74H130.57Z" fill="white"/>
<path d="M180.45 130.74V90.8604H220.33V130.74H180.45ZM209.46 119.86V101.73H191.33V119.86H209.46Z" fill="white"/>
<path d="M14.44 126.73L0 90.8501H13.25L20.81 109.6L28.56 90.8501H41.81L24.49 130.73C22.49 130.23 20.68 129.68 19.05 129.07C17.44 128.47 15.9 127.69 14.44 126.73Z" fill="white"/>
<path d="M587.38 11.1602H621.22C621.64 11.1602 622.28 11.7001 623.16 12.7901C624.04 13.8801 625.13 15.6002 626.43 17.9702C627.73 20.3302 629.19 23.4001 630.81 27.1801C632.43 30.9601 634.17 35.5102 636.02 40.8302C635.79 41.3402 635.33 42.1501 634.63 43.2601C633.93 44.3701 633.17 45.5102 632.34 46.6602C631.51 47.8102 630.66 48.8402 629.8 49.7202C628.94 50.6002 628.24 51.0402 627.68 51.0402H587.38V11.1602ZM619.68 40.0602L613.57 24.8401C613.52 24.7501 613.41 24.5502 613.22 24.2502C613.03 23.9502 612.84 23.6402 612.63 23.3102C612.42 22.9902 612.22 22.7002 612.04 22.4402C611.85 22.1902 611.74 22.0602 611.69 22.0602H600.5V40.2601H619.61C619.66 40.2701 619.68 40.2001 619.68 40.0602Z" fill="white"/>
<path d="M571.47 60.2701L542.47 31.2701V51.2101H531.59V4.08008L560.59 33.0801V11.3301H571.47V60.2701Z" fill="white"/>
<path d="M481.71 51.0402L521.59 11.1602V51.0402H510.71V38.3502L498.02 51.0402H481.71Z" fill="white"/>
<path d="M390 60.2701L361 31.2701V51.2101H350.12V4.08008L379.12 33.0801V11.3301H390V60.2701Z" fill="white"/>
<path d="M250.35 11.1603H261.23V25.6603H279.36V11.1603L290.24 0.280273V51.0403H279.36V36.5403H261.23V51.0403L250.35 61.9203V11.1603Z" fill="white"/>
<path d="M150.18 22.0401V11.1602H190.06V22.0401H150.18ZM150.18 36.5401V25.6602H190.06V36.5401H150.18ZM150.18 51.0402V40.1602H190.06V51.0402H150.18Z" fill="white"/>
<path d="M400.8 22.0401V11.1602H440.68V22.0401H400.8ZM400.8 36.5401V25.6602H440.68V36.5401H400.8ZM400.8 51.0402V40.1602H440.68V51.0402H400.8Z" fill="white"/>
<path d="M49.8799 22.0401V11.1602H89.7599V22.0401H49.8799ZM49.8799 36.5401V25.6602H89.7599V36.5401H49.8799ZM49.8799 51.0402V40.1602H89.7599V51.0402H49.8799Z" fill="white"/>
<path d="M14.5098 51.0402V22.0401H0.00976562V11.1602H39.8898V22.0401H25.3898V51.0402H14.5098Z" fill="white"/>
<path d="M300.23 51.0402V11.1602H340.11V51.0402H300.23ZM329.24 40.1702V22.0401H311.11V40.1702H329.24Z" fill="white"/>
<path d="M103.15 51.0402V11.1602H116.35V40.3401H140.18L134.07 51.0402H103.15Z" fill="white"/>
<path d="M200.06 25.6604H229.06V22.0304H200.06V11.1504H239.94V36.5304H210.94V51.0304L200.06 61.9104V25.6604Z" fill="white"/>
</svg>
