<svg width="671" height="82" viewBox="0 0 671 82" fill="none" xmlns="http://www.w3.org/2000/svg">
<path d="M581.72 7.87012H592.6V29.6201L621.6 0.620117V47.7501H610.72V27.8102L581.72 56.8102V7.87012Z" fill="white"/>
<path d="M567.18 38.38V37.0699V8.56006C567.18 8.56006 553.96 8.56006 554.01 8.56006V22.58H553.94V33.38V37.84H539.86V33.38V22.58V8.5H539.3C539.21 8.5 526.64 8.5 526.69 8.5V42.79V48.5H560.16V68.58L571.89 48.22V38.38H567.18Z" fill="white"/>
<path d="M538.84 8.56006C538.84 8.56006 525.62 8.56006 525.67 8.56006V22.58H525.6V33.38V37.84H511.52V33.38V22.58V8.5H510.96C510.87 8.5 498.3 8.5 498.35 8.5V42.79V48.5H531.82" fill="white"/>
<path d="M183.23 48.7999L223.4 8.62988V26.1099L199.66 48.7999H183.23Z" fill="white"/>
<path d="M378.44 8.62988H394.75L414.69 28.5698V8.62988H425.57V50.3198L393.98 81.9099L396.57 63.0099L414.7 44.8799L378.44 8.62988Z" fill="white"/>
<path d="M50.9004 48.4399V8.56006H90.7804V48.4399H50.9004ZM79.9004 37.5699V19.4399H61.7704V37.5699H79.9004Z" fill="white"/>
<path d="M96.2202 48.4399V8.56006L116.16 28.5L136.1 8.56006V48.4399H125.22V35.75L116.16 44.8101L107.1 35.75V48.4399H96.2202Z" fill="white"/>
<path d="M152.42 19.4399V48.4399H141.54V8.56006H177.8V48.4399H166.92V19.4399H152.42Z" fill="white"/>
<path d="M449.85 23.1401V8.64014H489.73V48.5201H449.85V34.0201H446.22V48.5201H435.34V8.64014H446.22V23.1401H449.85ZM478.85 37.6401V19.5101H460.72V37.6401H478.85Z" fill="white"/>
<path d="M345.73 48.5099V19.5099H331.23V8.62988H371.11V19.5099H356.61V48.5099H345.73Z" fill="white"/>
<path d="M232.25 19.5099V8.62988H272.13V19.5099H232.25ZM232.25 34.0099V23.1299H272.13V34.0099H232.25ZM232.25 48.5099V37.6299H272.13V48.5099H232.25Z" fill="white"/>
<path d="M630.2 19.5099V8.62988H670.08V19.5099H630.2ZM630.2 34.0099V23.1299H670.08V34.0099H630.2ZM630.2 48.5099V37.6299H670.08V48.5099H630.2Z" fill="white"/>
<path d="M11.0201 33.9399V48.4399H0.140137V8.56006H11.0201V23.0601L25.5201 8.56006H41.8301L21.8901 28.5L45.4601 52.0699V68.39L11.0201 33.9399Z" fill="white"/>
<path d="M292.07 34.0099V48.5099H281.19V8.62988H292.07V23.1299L306.57 8.62988H322.88L302.94 28.5698L326.51 52.1399V68.4598L292.07 34.0099Z" fill="white"/>
</svg>
