<svg width="475" height="169" viewBox="0 0 475 169" fill="none" xmlns="http://www.w3.org/2000/svg">
<path d="M0.140137 94.8604H11.0201V116.61L40.0201 87.6104V134.74H29.1401V114.8L0.140137 143.8V94.8604Z" fill="white"/>
<path d="M65.4004 94.8605H76.2804V109.36H94.4104V94.8605L105.29 83.9805V134.74H94.4104V120.24H76.2804V134.74L65.4004 145.62V94.8605Z" fill="white"/>
<path d="M110.72 134.751V94.8706H150.6V134.751H110.72ZM139.73 123.871V105.741H121.6V123.871H139.73Z" fill="white"/>
<path d="M148.791 94.8604H165.1L185.041 114.8V94.8604H195.921V136.55L164.33 168.14L166.921 149.24L185.051 131.11L148.791 94.8604Z" fill="white"/>
<path d="M286.561 94.8604H302.87L322.811 114.8V94.8604H333.69V136.55L302.1 168.14L304.69 149.24L322.82 131.11L286.561 94.8604Z" fill="white"/>
<path d="M215.86 134.751V105.751H201.36V94.8706H241.24V105.751H226.74V134.751H215.86Z" fill="white"/>
<path d="M246.68 134.751V94.8706H286.56L275.68 105.751H257.55V109.381H286.55V134.761H246.68V134.751ZM275.69 123.871V120.241H257.56V123.871H275.69Z" fill="white"/>
<path d="M348.2 120.24V134.74H337.32V94.8604H348.2V109.36L362.7 94.8604H379.01L359.07 114.8L382.64 138.37V154.69L348.2 120.24Z" fill="white"/>
<path d="M384.45 94.8604H395.33V116.61L424.33 87.6104V134.74H413.45V114.8L384.45 143.8V94.8604Z" fill="white"/>
<path d="M11.0201 36.5304V51.0304H0.140137V11.1504H11.0201V25.6504L25.5201 11.1504H41.8301L21.8901 31.0904L45.4601 54.6604V70.9804L11.0201 36.5304Z" fill="white"/>
<path d="M47.27 51.0401V11.1602H87.15V51.0401H47.27ZM76.28 40.1601V22.0302H58.15V40.1601H76.28Z" fill="white"/>
<path d="M92.5898 51.0401V11.1602L112.53 31.1001L132.47 11.1602V51.0401H121.59V38.3501L112.53 47.4101L103.47 38.3501V51.0401H92.5898Z" fill="white"/>
<path d="M148.79 22.0304V51.0304H137.91V11.1504H174.17V51.0304H163.29V22.0304H148.79Z" fill="white"/>
<path d="M239.43 25.6601V11.1602H279.31V51.0401H239.43V36.5401H235.8V51.0401H224.92V11.1602H235.8V25.6601H239.43ZM268.44 40.1601V22.0302H250.31V40.1601H268.44Z" fill="white"/>
<path d="M299.25 51.0401V22.0401H284.75V11.1602H324.63V22.0302H310.13V51.0302H299.25V51.0401Z" fill="white"/>
<path d="M330.07 22.0304V11.1504H369.95V22.0304H330.07ZM330.07 36.5304V25.6504H369.95V36.5304H330.07ZM330.07 51.0404V40.1604H369.95V51.0404H330.07Z" fill="white"/>
<path d="M375.39 25.6604H404.39V22.0304H375.39V11.1504H415.27V36.5304H386.27V51.0304L375.39 61.9104V25.6604Z" fill="white"/>
<path d="M431.59 11.3802V25.8802H460.59V51.2603H420.71V40.3802H449.71V36.7502H420.71V0.490234L431.59 11.3802ZM474.53 51.0402V11.1602H463.65V51.0402H474.53Z" fill="white"/>
<path d="M190.49 11.38V25.88H219.49V51.26H179.61V40.39H208.61V36.76H179.61V0.5L190.49 11.38Z" fill="white"/>
</svg>
