<svg width="899" height="166" viewBox="0 0 899 166" fill="none" xmlns="http://www.w3.org/2000/svg">
<path d="M193.72 92.0298H210.03L229.97 111.97V92.0298H240.85V133.72L209.26 165.31L211.85 146.41L229.98 128.28L193.72 92.0298Z" fill="white"/>
<path d="M367.54 106.53H396.54V102.9H367.54V92.0298H407.42V117.41H378.42H367.54V106.53Z" fill="white"/>
<path d="M367.54 121.03H396.54V117.4H367.54V106.52H407.42V131.9H378.42H367.54V121.03Z" fill="white"/>
<path d="M417.43 131.91L457.31 92.0298V131.91H446.43V119.22L433.74 131.91H417.43Z" fill="white"/>
<path d="M517.19 92.21H528.07V113.96L557.07 84.96V132.09H546.19V112.15L517.19 141.15V92.21Z" fill="white"/>
<path d="M298.09 121.65V92.0298H258.21V121.65H250.86V131.49L262.59 151.85V131.91H293.71V151.85L305.44 131.49V121.65H298.09ZM269.08 102.9H287.21V121.03H269.08V102.9Z" fill="white"/>
<path d="M467.31 92.0299H478.19V106.53H496.32V92.0299L507.2 81.1499V131.91H496.32V117.41H478.19V131.91L467.31 142.79V92.0299Z" fill="white"/>
<path d="M567.21 102.9V92.0298H607.09V102.91H567.21V102.9ZM567.21 117.41V106.53H607.09V117.41H567.21ZM567.21 131.91V121.03H607.09V131.91H567.21Z" fill="white"/>
<path d="M143.84 106.53H172.84V102.9H143.84V92.0298H183.72V117.41H154.72V131.91L143.84 142.79V106.53Z" fill="white"/>
<path d="M0.0600586 131.91V92.0298H39.9401V131.91H0.0600586ZM29.0701 121.03V102.9H10.9401V121.03H29.0701Z" fill="white"/>
<path d="M93.96 131.91V92.0298H133.84V131.91H93.96ZM122.96 121.03V102.9H104.83V121.03H122.96Z" fill="white"/>
<path d="M316 131.91V92.0298H355.88V131.91H316ZM345 121.03V102.9H326.87V121.03H345Z" fill="white"/>
<path d="M59.2199 101.3V110.26H83.9599V131.91H49.9399V122.63H74.6799V119.54H49.9399V92.0298L59.2199 101.3Z" fill="white"/>
<path d="M59.2199 101.3H83.9599V92.0298H49.9399L57.0999 101.3H59.2199Z" fill="white"/>
<path d="M479 10.0796H489.88V31.8296L518.88 2.82959V49.9596H508V30.0197L479 59.0197V10.0796Z" fill="white"/>
<path d="M349.23 49.7697V9.88965H389.11V49.7697H349.23ZM378.24 38.8997V20.7697H360.11V38.8997H378.24Z" fill="white"/>
<path d="M299.35 10.8898H310.23V25.3898H328.36V10.8898L339.24 0.00976562V50.7698H328.36V36.2698H310.23V50.7698L299.35 61.6498V10.8898Z" fill="white"/>
<path d="M49.9399 20.7697V9.88965H89.8199V20.7697H49.9399ZM49.9399 35.2697V24.3896H89.8199V35.2697H49.9399ZM49.9399 49.7697V38.8896H89.8199V49.7697H49.9399Z" fill="white"/>
<path d="M199.59 20.7697V9.88965H239.47V20.7697H199.59ZM199.59 35.2697V24.3896H239.47V35.2697H199.59ZM199.59 49.7697V38.8896H239.47V49.7697H199.59Z" fill="white"/>
<path d="M399.12 20.7697V9.88965H439V20.7697H399.12ZM399.12 35.2697V24.3896H439V35.2697H399.12ZM399.12 49.7697V38.8896H439V49.7697H399.12Z" fill="white"/>
<path d="M99.8198 24.3899H128.82V20.7599H99.8198V9.87988H139.7V35.2599H110.7V49.7599L99.8198 60.6399V24.3899Z" fill="white"/>
<path d="M249.47 24.3899H278.47V20.7599H249.47V9.87988H289.35V35.2599H260.35V49.7599L249.47 60.6399V24.3899Z" fill="white"/>
<path d="M149.71 24.3899H178.71V20.7599H149.71V9.87988H189.59V35.2599H160.59H149.71V24.3899Z" fill="white"/>
<path d="M149.71 38.8997H178.71V35.2697H149.71V24.3896H189.59V49.7697H160.59H149.71V38.8997Z" fill="white"/>
<path d="M0.0600586 49.7697V9.88965H39.9401V20.7697H10.9401V38.8997H39.9401V49.7797H0.0600586V49.7697Z" fill="white"/>
<path d="M673.14 49.7697V20.7697H658.64V9.88965H698.52V20.7697H684.02V49.7697H673.14Z" fill="white"/>
<path d="M808.29 49.7697V9.88965H848.17V49.7697H808.29ZM837.29 38.8997V20.7697H819.16V38.8997H837.29Z" fill="white"/>
<path d="M608.76 20.7697V9.88965H648.64V20.7697H608.76ZM608.76 35.2697V24.3896H648.64V35.2697H608.76ZM608.76 49.7697V38.8896H648.64V49.7697H608.76Z" fill="white"/>
<path d="M708.52 20.7697V9.88965H748.4V20.7697H708.52ZM708.52 35.2697V24.3896H748.4V35.2697H708.52ZM708.52 49.7697V38.8896H748.4V49.7697H708.52Z" fill="white"/>
<path d="M858.17 20.7697V9.88965H898.05V20.7697H858.17ZM858.17 35.2697V24.3896H898.05V35.2697H858.17ZM858.17 49.7697V38.8896H898.05V49.7697H858.17Z" fill="white"/>
<path d="M758.4 24.3899H787.4V20.7599H758.4V9.87988H798.28V35.2599H769.28H758.4V24.3899Z" fill="white"/>
<path d="M758.4 38.8997H787.4V35.2697H758.4V24.3896H798.28V49.7697H769.28H758.4V38.8997Z" fill="white"/>
<path d="M558.88 49.7697V9.88965H598.76V20.7697H569.76V38.8997H598.76V49.7797H558.88V49.7697Z" fill="white"/>
</svg>
