<svg width="509" height="71" viewBox="0 0 509 71" fill="none" xmlns="http://www.w3.org/2000/svg">
<path d="M363.3 10.6602H374.18V32.4102L403.18 3.41016V50.5402H392.3V30.6002L363.3 59.6002V10.6602Z" fill="white"/>
<path d="M100.79 10.9604V21.8405V61.7205L111.66 50.8505V36.3405V21.8405H129.79H137.67V10.9604H100.79Z" fill="white"/>
<path d="M313.42 11.1202H324.3V25.6202H342.43V11.1202L353.31 0.240234V51.0002H342.43V36.5002H324.3V51.0002L313.42 61.8802V11.1202Z" fill="white"/>
<path d="M162.17 50.8502V21.8502H147.67V10.9702H187.55V21.8502H173.05V50.8502H162.17Z" fill="white"/>
<path d="M197.55 21.8405V10.9604H237.43V21.8405H197.55ZM197.55 36.3405V25.4604H237.43V36.3405H197.55ZM197.55 50.8505V39.9705H237.43V50.8505H197.55Z" fill="white"/>
<path d="M50.02 25.4705H79.02V21.8405H50.02V10.9604H89.9V36.3405H60.9V50.8405L50.02 61.7205V25.4705Z" fill="white"/>
<path d="M0.140137 50.8502V10.9702H40.0201V50.8502H0.140137ZM29.1501 39.9702V21.8402H11.0201V39.9702H29.1501Z" fill="white"/>
<path d="M424.06 36.3405V50.8405H413.18V10.9604H424.06V25.4604L438.56 10.9604H454.87L434.93 30.9005L458.5 54.4705V70.7905L424.06 36.3405Z" fill="white"/>
<path d="M468.5 50.8405L508.38 10.9604V50.8405H497.5V38.1505L484.81 50.8405H468.5Z" fill="white"/>
<path d="M275.43 39.3301L263.69 51.0701H247.43L267.3 31.2001L256.46 20.3601V4.1001L275.42 23.0601L287.16 11.3201H303.42L283.55 31.1901L296.19 43.8301V60.0901L275.43 39.3301Z" fill="white"/>
</svg>
