<svg width="608" height="164" viewBox="0 0 608 164" fill="none" xmlns="http://www.w3.org/2000/svg">
<path d="M354.92 10.7197H365.8V32.4697L394.8 3.46973V50.5997H383.92V30.6597L354.92 59.6597V10.7197Z" fill="white"/>
<path d="M514.42 10.9095V25.4095H543.42V50.7895H503.54V39.9095H532.54V36.2795H503.54V0.0195312L514.42 10.9095ZM557.36 50.5695V10.6895H546.48V50.5695H557.36Z" fill="white"/>
<path d="M11.2198 21.8694V51.0895H0.259766V10.9194H36.7798V51.0895H25.8198V21.8694H11.2198Z" fill="white"/>
<path d="M454.64 10.9092H465.52V25.4092H483.65V10.9092L494.53 0.0292969V50.7892H483.65V36.2892H465.52V50.7892L454.64 61.6693V10.9092Z" fill="white"/>
<path d="M46.7798 21.7897V10.9097H86.6598V21.7897H46.7798ZM46.7798 36.2897V25.4097H86.6598V36.2897H46.7798ZM46.7798 50.7997V39.9197H86.6598V50.7997H46.7798Z" fill="white"/>
<path d="M146.54 21.7897V10.9097H186.42V21.7897H146.54ZM146.54 36.2897V25.4097H186.42V36.2897H146.54ZM146.54 50.7997V39.9197H186.42V50.7997H146.54Z" fill="white"/>
<path d="M567.24 21.7897V10.9097H607.12V21.7897H567.24ZM567.24 36.2897V25.4097H607.12V36.2897H567.24ZM567.24 50.7997V39.9197H607.12V50.7997H567.24Z" fill="white"/>
<path d="M255.41 21.7897V10.9097H295.29V21.7897H255.41ZM255.41 36.2897V25.4097H295.29V36.2897H255.41ZM255.41 50.7997V39.9197H295.29V50.7997H255.41Z" fill="white"/>
<path d="M96.6597 25.4197H125.66V21.7897H96.6597V10.9097H136.54V36.2897H107.54V50.7897L96.6597 61.6697V25.4197Z" fill="white"/>
<path d="M305.48 25.4197H334.48V21.7897H305.48V10.9097H345.36V36.2897H316.36V50.7897L305.48 61.6697V25.4197Z" fill="white"/>
<path d="M215.54 25.4197H234.54V21.7897H215.54V10.9097H245.42V36.2897H226.42V50.7897L215.54 61.6697V25.4197Z" fill="white"/>
<path d="M226.31 40.84L215.43 50.7999V36.2999H196.43V21.7999L206.74 10.9199H226.31V21.7999H207.31V25.4299H226.31V40.84Z" fill="white"/>
<path d="M226.31 19.3799H215.43V36.2899H226.31V19.3799Z" fill="white"/>
<path d="M405.32 10.8895H416.28V32.7994L445.5 3.57947V51.0494H434.54V30.9595L405.32 60.1794V10.8895ZM419.24 25.3795L430.2 14.4194V3.45947H419.24V25.3795Z" fill="white"/>
<path d="M0.259766 90.0396H16.5698L36.5098 109.98V90.0396H47.3898V131.73L15.7998 163.32L18.3898 144.42L36.5198 126.29L0.259766 90.0396Z" fill="white"/>
<path d="M121.76 129.92V100.92H107.26V90.0396H147.14V100.92H132.64V129.92H121.76Z" fill="white"/>
<path d="M372.8 129.92V100.92H358.3V90.0396H398.18V100.92H383.68V129.92H372.8Z" fill="white"/>
<path d="M158.05 104.54H187.05V100.91H158.05V90.0298H197.93V115.41H168.93V129.91L158.05 140.79V104.54Z" fill="white"/>
<path d="M408.18 104.54H437.18V100.91H408.18V90.0298H448.06V115.41H419.06H408.18V104.54Z" fill="white"/>
<path d="M408.18 119.05H437.18V115.42H408.18V104.54H448.06V129.92H419.06H408.18V119.05Z" fill="white"/>
<path d="M458.06 129.92L497.94 90.0396V129.92H487.06V117.23L474.37 129.92H458.06Z" fill="white"/>
<path d="M207.87 129.92V90.0396H247.75V129.92H207.87ZM236.88 119.05V100.92H218.75V119.05H236.88Z" fill="white"/>
<path d="M257.81 90.0396H268.77V111.95L297.99 82.7296V130.2H287.03V110.11L257.81 139.33V90.0396ZM271.73 104.54L282.69 93.5797V82.6196H271.73V104.54Z" fill="white"/>
<path d="M57.3799 129.7V89.8198H97.2599V100.7H68.2599V118.83H97.2599V129.71H57.3799V129.7Z" fill="white"/>
<path d="M308.42 129.7V89.8198H348.3V100.7H319.3V118.83H348.3V129.71H308.42V129.7Z" fill="white"/>
</svg>
