<svg width="630" height="154" viewBox="0 0 630 154" fill="none" xmlns="http://www.w3.org/2000/svg">
<path d="M494.6 10.96H505.48V32.71L534.48 3.70996V50.84H523.6V30.9L494.6 59.9V10.96Z" fill="white"/>
<path d="M309.29 11.2599H320.17V25.7599H338.3V11.2599L349.18 0.379883V51.1399H338.3V36.6399H320.17V51.1399L309.29 62.0199V11.2599Z" fill="white"/>
<path d="M150.18 22.1398V11.2598H190.06V22.1398H150.18ZM150.18 36.6398V25.7598H190.06V36.6398H150.18ZM150.18 51.1398V40.2598H190.06V51.1398H150.18Z" fill="white"/>
<path d="M49.8799 22.1398V11.2598H89.7599V22.1398H49.8799ZM49.8799 36.6398V25.7598H89.7599V36.6398H49.8799ZM49.8799 51.1398V40.2598H89.7599V51.1398H49.8799Z" fill="white"/>
<path d="M14.5098 51.1398V22.1398H0.00976562V11.2598H39.8898V22.1398H25.3898V51.1398H14.5098Z" fill="white"/>
<path d="M259.35 51.1398V11.2598H299.23V51.1398H259.35ZM288.36 40.2598V22.1298H270.23V40.2598H288.36Z" fill="white"/>
<path d="M359.23 10.96H370.11V32.71L399.11 3.70996V50.84H388.23V30.9L359.23 59.9V10.96Z" fill="white"/>
<path d="M422.63 35.41L408.96 20.6C409.13 20.18 409.53 19.45 410.17 18.41C410.81 17.37 411.5 16.32 412.27 15.26C413.03 14.2 413.81 13.27 414.59 12.46C415.37 11.66 416 11.25 416.46 11.25H449.26L454.6 20.21L452.63 21.67L452.06 51.13C451.98 51.13 440.58 51.13 440.62 51.13V21.23H427.27C427.14 21.23 426.96 21.35 426.73 21.58C426.5 21.81 426.34 22.04 426.25 22.25L438.2 33.5L411.99 62.01L411.72 49.07L422.63 35.41Z" fill="white"/>
<path d="M99.8296 51.4297L140 11.2598V28.7397L116.26 51.4297H99.8296Z" fill="white"/>
<path d="M219.34 25.76H238.34V22.13H219.34V11.25H249.22V36.63H230.22V51.13L219.34 62.01V25.76Z" fill="white"/>
<path d="M230.11 41.1797L219.23 51.1398V36.6398H200.23V22.1398L210.54 11.2598H230.11V22.1398H211.11V25.7697H230.11V41.1797Z" fill="white"/>
<path d="M230.11 19.73H219.23V36.64H230.11V19.73Z" fill="white"/>
<path d="M168.19 105.239V94.3594H208.07V105.239H168.19ZM168.19 119.739V108.859H208.07V119.739H168.19ZM168.19 134.249V123.369H208.07V134.249H168.19Z" fill="white"/>
<path d="M0 108.869H29V105.239H0V94.3594H39.89V119.739H10.89H0V108.869Z" fill="white"/>
<path d="M0 123.369H29V119.739H0V108.859H39.89V134.239H10.89H0V123.369Z" fill="white"/>
<path d="M218.09 134.25V94.3696H257.97V134.25H218.09ZM247.09 123.37V105.24H228.96V123.37H247.09Z" fill="white"/>
<path d="M52.9399 94.0698H63.8199V115.82L92.8199 86.8198V133.95H81.9399V114.01L52.9399 143.01V94.0698Z" fill="white"/>
<path d="M484.51 94.0698H495.39V115.82L524.39 86.8198V133.95H513.51V114.01L484.51 143.01V94.0698Z" fill="white"/>
<path d="M433.98 94.0197H444.86V108.52H462.99V94.0197L473.87 83.1396V133.9H462.99V119.4H444.86V133.9L433.98 144.78V94.0197Z" fill="white"/>
<path d="M282.73 133.739V104.739H268.23V93.8594H308.11V104.739H293.61V133.739H282.73Z" fill="white"/>
<path d="M318.11 104.739V93.8594H357.99V104.739H318.11ZM318.11 119.239V108.359H357.99V119.239H318.11ZM318.11 133.739V122.859H357.99V133.739H318.11Z" fill="white"/>
<path d="M545.46 119.239V133.739H534.59V93.8594H545.47V108.359L559.97 93.8594H576.28L556.34 113.799L579.91 137.369V153.689L545.46 119.239Z" fill="white"/>
<path d="M589.91 133.739L629.79 93.8594V133.739H618.91V121.049L606.22 133.739H589.91Z" fill="white"/>
<path d="M395.98 122.22L384.24 133.96H367.99L387.86 114.09L377.02 103.25V86.9897L395.98 105.95L407.72 94.2098H423.98L404.11 114.08L416.75 126.72V142.98L395.98 122.22Z" fill="white"/>
<path d="M151.07 123.079V93.4595H111.19V123.079H103.84V132.919L115.57 153.279V133.339H146.69V153.279L158.42 132.919V123.079H151.07ZM122.06 104.339H140.19V122.469H122.06V104.339Z" fill="white"/>
</svg>
