<svg width="553" height="86" viewBox="0 0 553 86" fill="none" xmlns="http://www.w3.org/2000/svg">
<path d="M183.23 52.4298L223.4 12.2598V29.7397L199.66 52.4298H183.23Z" fill="white"/>
<path d="M378.44 12.2598H394.75L414.69 32.1997V12.2598H425.57V53.9497L393.98 85.5398L396.57 66.6398L414.7 48.5098L378.44 12.2598Z" fill="white"/>
<path d="M50.9004 52.0695V12.1895H90.7804V52.0695H50.9004ZM79.9004 41.1895V23.0596H61.7704V41.1895H79.9004Z" fill="white"/>
<path d="M96.2202 52.0695V12.1895L116.16 32.1295L136.1 12.1895V52.0695H125.22V39.3795L116.16 48.4395L107.1 39.3795V52.0695H96.2202Z" fill="white"/>
<path d="M152.42 23.0597V52.0597H141.54V12.1797H177.8V52.0597H166.92V23.0597H152.42Z" fill="white"/>
<path d="M449.85 26.7598V12.2598H489.73V52.1398H449.85V37.6398H446.22V52.1398H435.34V12.2598H446.22V26.7598H449.85ZM478.85 41.2598V23.1298H460.72V41.2598H478.85Z" fill="white"/>
<path d="M345.73 52.1398V23.1398H331.23V12.2598H371.11V23.1398H356.61V52.1398H345.73Z" fill="white"/>
<path d="M232.25 23.1295V12.2495H272.13V23.1295H232.25ZM232.25 37.6395V26.7595H272.13V37.6395H232.25ZM232.25 52.1395V41.2595H272.13V52.1395H232.25Z" fill="white"/>
<path d="M11.0201 37.5695V52.0695H0.140137V12.1895H11.0201V26.6895L25.5201 12.1895H41.8301L21.8901 32.1295L45.4601 55.6995V72.0195L11.0201 37.5695Z" fill="white"/>
<path d="M292.07 37.6398V52.1398H281.19V12.2598H292.07V26.7598L306.57 12.2598H322.88L302.94 32.1997L326.51 55.7698V72.0897L292.07 37.6398Z" fill="white"/>
<path d="M521.87 52.1395V11.8695L532.15 0.689453V52.1395H521.87Z" fill="white"/>
<path d="M497.42 30.0396V11.8695L507.71 0.689453V30.0396H497.42Z" fill="white"/>
<path d="M531.19 26.4097H497.42V35.4696H531.19V26.4097Z" fill="white"/>
<path d="M541.76 52.1395V11.8695L552.05 0.689453V52.1395H541.76Z" fill="white"/>
</svg>
