<svg width="481" height="164" viewBox="0 0 481 164" fill="none" xmlns="http://www.w3.org/2000/svg">
<path d="M50.9004 51.2399V11.3599H90.7804V51.2399H50.9004ZM79.9004 40.3599V22.2299H61.7704V40.3599H79.9004Z" fill="white"/>
<path d="M96.2202 51.2399V11.3599L116.16 31.2999L136.1 11.3599V51.2399H125.22V38.5499L116.16 47.6099L107.1 38.5499V51.2399H96.2202Z" fill="white"/>
<path d="M152.42 22.2301V51.2301H141.54V11.3501H177.8V51.2301H166.92V22.2301H152.42Z" fill="white"/>
<path d="M193.11 0.709961V20.65L182.23 12.0999V0.709961H193.11Z" fill="white"/>
<path d="M212.05 25.8599V11.3599H251.93V51.2399H212.05V36.7399H208.42V51.2399H197.54V11.3599H208.42V25.8599H212.05ZM241.06 40.3599V22.2299H222.93V40.3599H241.06Z" fill="white"/>
<path d="M271.87 51.2399V22.2399H257.37V11.3599H297.25V22.2399H282.75V51.2399H271.87Z" fill="white"/>
<path d="M302.69 22.2301V11.3501H342.57V22.2301H302.69ZM302.69 36.7401V25.8601H342.57V36.7401H302.69ZM302.69 51.2401V40.3601H342.57V51.2401H302.69Z" fill="white"/>
<path d="M348.01 25.8601H377.01V22.2301H348.01V11.3501H387.89V36.7301H358.89V51.2301L348.01 62.1101V25.8601Z" fill="white"/>
<path d="M11.0201 36.7399V51.2399H0.140137V11.3599H11.0201V25.8599L25.5201 11.3599H41.8301L21.8901 31.2999L45.4601 54.8699V71.1899L11.0201 36.7399Z" fill="white"/>
<path d="M393.33 10.5601H404.21V32.3101L433.21 3.31006V50.4401H422.33V30.5001L393.33 59.5001V10.5601Z" fill="white"/>
<path d="M121.33 90.2301H132.21V104.73H150.34V90.2301L161.22 79.3501V130.11H150.34V115.61H132.21V130.11L121.33 140.99V90.2301Z" fill="white"/>
<path d="M166.65 130.11V90.23H206.53V130.11H166.65ZM195.66 119.23V101.1H177.53V119.23H195.66Z" fill="white"/>
<path d="M204.72 90.23H221.03L240.97 110.17V90.23H251.85V131.92L220.26 163.51L222.85 144.61L240.98 126.48L204.72 90.23Z" fill="white"/>
<path d="M342.5 90.23H358.81L378.75 110.17V90.23H389.63V131.92L358.04 163.51L360.63 144.61L378.76 126.48L342.5 90.23Z" fill="white"/>
<path d="M271.8 130.11V101.11H257.3V90.23H297.18V101.11H282.68V130.11H271.8Z" fill="white"/>
<path d="M302.61 130.11V90.23H342.49L331.61 101.11H313.48V104.74H342.48V130.12H302.61V130.11ZM331.62 119.23V115.6H313.49V119.23H331.62Z" fill="white"/>
<path d="M404.13 115.61V130.11H393.25V90.23H404.13V104.73L418.63 90.23H434.94L415 110.17L438.57 133.74V150.06L404.13 115.61Z" fill="white"/>
<path d="M440.39 90.23H451.27V111.98L480.27 82.98V130.11H469.39V110.17L440.39 139.17V90.23Z" fill="white"/>
<path d="M14.6401 133.39V104.39H0.140137V93.5103H40.0201V104.39H25.5201V133.39H14.6401Z" fill="white"/>
<path d="M39.5898 133.39L79.4698 93.5103V133.39H68.5898V120.7L55.8999 133.39H39.5898Z" fill="white"/>
</svg>
