<svg width="509" height="230" viewBox="0 0 509 230" fill="none" xmlns="http://www.w3.org/2000/svg">
<path d="M0.220215 127.22V87.3398L20.1602 107.28L40.1002 87.3398V127.22H29.2202V114.53L20.1602 123.59L11.1002 114.53V127.22H0.220215Z" fill="white"/>
<path d="M50.1001 98.2198V87.3398H89.9801V98.2198H50.1001ZM50.1001 112.72V101.84H89.9801V112.72H50.1001ZM50.1001 127.22V116.34H89.9801V127.22H50.1001Z" fill="white"/>
<path d="M149.87 98.2198V87.3398H189.75V98.2198H149.87ZM149.87 112.72V101.84H189.75V112.72H149.87ZM149.87 127.22V116.34H189.75V127.22H149.87Z" fill="white"/>
<path d="M388.98 98.2198V87.3398H428.86V98.2198H388.98ZM388.98 112.72V101.84H428.86V112.72H388.98ZM388.98 127.22V116.34H428.86V127.22H388.98Z" fill="white"/>
<path d="M289.22 98.2198V87.3398H329.1V98.2198H289.22ZM289.22 112.72V101.84H329.1V112.72H289.22ZM289.22 127.22V116.34H329.1V127.22H289.22Z" fill="white"/>
<path d="M99.98 101.84H128.98V98.2096H99.98V87.3296H139.86V112.71H110.86V127.21L99.98 138.09V101.84Z" fill="white"/>
<path d="M339.1 101.84H368.1V98.2096H339.1V87.3296H378.98V112.71H349.98H339.1V101.84Z" fill="white"/>
<path d="M339.1 116.35H368.1V112.72H339.1V101.84H378.98V127.22H349.98H339.1V116.35Z" fill="white"/>
<path d="M199.75 87.3398H215.32L234.35 106.37V87.3398H244.73V127.14H234.35V121.95L199.75 87.3398Z" fill="white"/>
<path d="M199.75 127.51L224.32 106.38L229.91 114.47L215.32 127.51H199.75Z" fill="white"/>
<path d="M244.61 121.95V127.14H234.23V87.3398H244.61V106.37L263.64 87.3398H279.21L244.61 121.95Z" fill="white"/>
<path d="M279.22 127.51L254.64 106.38L249.05 114.47L263.64 127.51H279.22Z" fill="white"/>
<path d="M443.78 51.3097V22.3097H429.28V11.4297H469.16V22.3097H454.66V51.3097H443.78Z" fill="white"/>
<path d="M468.72 51.3097L508.6 11.4297V51.3097H497.72V38.6196L485.03 51.3097H468.72Z" fill="white"/>
<path d="M299.51 11.4298H310.39V25.9298H328.52V11.4298L339.4 0.549805V51.3098H328.52V36.8098H310.39V51.3098L299.51 62.1897V11.4298Z" fill="white"/>
<path d="M50.1001 22.2999V11.4199H89.9801V22.2999H50.1001ZM50.1001 36.8099V25.9299H89.9801V36.8099H50.1001ZM50.1001 51.3099V40.4299H89.9801V51.3099H50.1001Z" fill="white"/>
<path d="M199.75 22.2999V11.4199H239.63V22.2999H199.75ZM199.75 36.8099V25.9299H239.63V36.8099H199.75ZM199.75 51.3099V40.4299H239.63V51.3099H199.75Z" fill="white"/>
<path d="M349.39 22.2999V11.4199H389.27V22.2999H349.39ZM349.39 36.8099V25.9299H389.27V36.8099H349.39ZM349.39 51.3099V40.4299H389.27V51.3099H349.39Z" fill="white"/>
<path d="M99.98 25.9299H128.98V22.2999H99.98V11.4199H139.86V36.7999H110.86V51.2999L99.98 62.1799V25.9299Z" fill="white"/>
<path d="M249.63 25.9299H278.63V22.2999H249.63V11.4199H289.51V36.7999H260.51V51.2999L249.63 62.1799V25.9299Z" fill="white"/>
<path d="M149.86 25.9299H178.86V22.2999H149.86V11.4199H189.74V36.7999H160.74H149.86V25.9299Z" fill="white"/>
<path d="M149.86 40.4299H178.86V36.7999H149.86V25.9199H189.74V51.2999H160.74H149.86V40.4299Z" fill="white"/>
<path d="M0.220215 51.3097V11.4297H40.1002V22.3097H11.1002V40.4396H40.1002V51.3196H0.220215V51.3097Z" fill="white"/>
<path d="M241.4 199.22V169.6H201.52V199.22H194.17V209.06L205.9 229.42V209.48H237.02V229.42L248.75 209.06V199.22H241.4ZM212.39 180.48H230.52V198.61H212.39V180.48Z" fill="white"/>
<path d="M259.24 169.6H270.12V184.1H288.25V169.6L299.13 158.72V209.48H288.25V194.98H270.12V209.48L259.24 220.36V169.6Z" fill="white"/>
<path d="M360.01 169.6H370.89V184.1H389.02V169.6L399.9 158.72V209.48H389.02V194.98H370.89V209.48L360.01 220.36V169.6Z" fill="white"/>
<path d="M411.05 169.6H421.93V184.1H440.06V169.6L450.94 158.72V209.48H440.06V194.98H421.93V209.48L411.05 220.36V169.6Z" fill="white"/>
<path d="M144.29 209.48L184.17 169.6V209.48H173.29V196.79L160.6 209.48H144.29Z" fill="white"/>
<path d="M309.47 209.48L349.35 169.6V209.48H338.47V196.79L325.78 209.48H309.47Z" fill="white"/>
<path d="M0.220215 209.48V169.6H40.1002V209.48H0.220215ZM29.2202 198.61V180.48H11.1002V198.61H29.2202Z" fill="white"/>
<path d="M59.3801 178.879V187.839H84.1201V209.489H50.1001V200.209H74.8401V197.119H50.1001V169.609L59.3801 178.879Z" fill="white"/>
<path d="M59.3801 178.88H84.1201V169.6H50.1001L57.2601 178.88H59.3801Z" fill="white"/>
<path d="M474.34 193.75L460.67 178.94C460.84 178.52 461.24 177.79 461.88 176.75C462.52 175.71 463.21 174.66 463.98 173.6C464.74 172.54 465.52 171.61 466.3 170.8C467.08 170 467.71 169.59 468.17 169.59H500.97L506.31 178.55L504.34 180.01L503.77 209.47C503.69 209.47 492.29 209.47 492.33 209.47V179.57H478.98C478.85 179.57 478.67 179.69 478.44 179.92C478.21 180.15 478.05 180.38 477.96 180.59L489.91 191.84L463.7 220.35L463.43 207.41L474.34 193.75Z" fill="white"/>
<path d="M94.1201 209.77L134.29 169.6V187.08L110.55 209.77H94.1201Z" fill="white"/>
</svg>
