<svg width="480" height="72" viewBox="0 0 480 72" fill="none" xmlns="http://www.w3.org/2000/svg">
<path d="M101.62 12.1606V23.0406V62.9207L112.49 52.0406V37.5406V23.0406H130.62H138.5V12.1606H101.62Z" fill="white"/>
<path d="M314.25 12.3204H325.13V26.8204H343.26V12.3204L354.14 1.44043V52.2004H343.26V37.7004H325.13V52.2004L314.25 63.0804V12.3204Z" fill="white"/>
<path d="M163 52.0406V23.0406H148.5V12.1606H188.38V23.0406H173.88V52.0406H163Z" fill="white"/>
<path d="M198.38 23.0406V12.1606H238.26V23.0406H198.38ZM198.38 37.5406V26.6606H238.26V37.5406H198.38ZM198.38 52.0406V41.1606H238.26V52.0406H198.38Z" fill="white"/>
<path d="M50.8501 26.6604H79.8501V23.0304H50.8501V12.1504H90.7301V37.5304H61.7301V52.0304L50.8501 62.9104V26.6604Z" fill="white"/>
<path d="M0.970215 52.0406V12.1606H40.8502V52.0406H0.970215ZM29.9802 41.1606V23.0306H11.8502V41.1606H29.9802Z" fill="white"/>
<path d="M364.13 51.8904V11.6204L374.42 0.44043V51.8904H364.13Z" fill="white"/>
<path d="M395.29 37.5406V52.0406H384.41V12.1606H395.29V26.6606L409.79 12.1606H426.1L406.16 32.1006L429.73 55.6707V71.9906L395.29 37.5406Z" fill="white"/>
<path d="M439.74 52.0406L479.62 12.1606V52.0406H468.74V39.3506L456.05 52.0406H439.74Z" fill="white"/>
<path d="M276.26 40.5205L264.52 52.2605H248.26L268.13 32.3905L257.29 21.5505V5.29053L276.25 24.2505L287.99 12.5105H304.25L284.38 32.3805L297.02 45.0205V61.2805L276.26 40.5205Z" fill="white"/>
</svg>
