<svg width="484" height="148" viewBox="0 0 484 148" fill="none" xmlns="http://www.w3.org/2000/svg">
<path d="M11.3199 23.3699V52.59H0.359863V12.4199H36.8799V52.59H25.9199V23.3699H11.3199Z" fill="white"/>
<path d="M423.65 12.4097H434.53V26.9097H452.66V12.4097L463.54 1.52979V52.2897H452.66V37.7897H434.53V52.2897L423.65 63.1697V12.4097Z" fill="white"/>
<path d="M46.8799 23.2897V12.4097H86.7599V23.2897H46.8799ZM46.8799 37.7897V26.9097H86.7599V37.7897H46.8799ZM46.8799 52.2897V41.4097H86.7599V52.2897H46.8799Z" fill="white"/>
<path d="M145.91 23.2897V12.4097H185.79V23.2897H145.91ZM145.91 37.7897V26.9097H185.79V37.7897H145.91ZM145.91 52.2897V41.4097H185.79V52.2897H145.91Z" fill="white"/>
<path d="M253.62 23.2897V12.4097H293.5V23.2897H253.62ZM253.62 37.7897V26.9097H293.5V37.7897H253.62ZM253.62 52.2897V41.4097H293.5V52.2897H253.62Z" fill="white"/>
<path d="M96.7598 26.9197H125.76V23.2897H96.7598V12.4097H136.64V37.7897H107.64V52.2897L96.7598 63.1697V26.9197Z" fill="white"/>
<path d="M303.69 26.9197H332.69V23.2897H303.69V12.4097H343.57V37.7897H314.57V52.2897L303.69 63.1697V26.9197Z" fill="white"/>
<path d="M213.75 26.9197H232.75V23.2897H213.75V12.4097H243.63V37.7897H224.63V52.2897L213.75 63.1697V26.9197Z" fill="white"/>
<path d="M224.52 42.34L213.64 52.2999V37.7999H194.64V23.2999L204.95 12.4199H224.52V23.2999H205.52V26.9299H224.52V42.34Z" fill="white"/>
<path d="M224.52 20.8799H213.64V37.7899H224.52V20.8799Z" fill="white"/>
<path d="M373.48 12.18H384.44V34.09L413.66 4.87V52.34H402.7V32.25L373.48 61.47V12.18ZM387.41 26.67L398.37 15.71V4.75H387.41V26.67Z" fill="white"/>
<path d="M353.15 52.2898V12.0198L363.43 0.839844V52.2898H353.15Z" fill="white"/>
<path d="M473.54 52.2898V12.0198L483.82 0.839844V52.2898H473.54Z" fill="white"/>
<path d="M11.3199 108.13V137.35H0.359863V97.1797H36.8799V137.35H25.9199V108.13H11.3199Z" fill="white"/>
<path d="M206.58 137.06V108.06H192.08V97.1797H231.96V108.06H217.46V137.06H206.58Z" fill="white"/>
<path d="M44.9497 111.68H73.9497V108.05H44.9497V97.1699H84.8297V122.55H55.8297V137.05L44.9497 147.93C44.9497 147.93 44.9497 111.68 44.9497 111.68Z" fill="white"/>
<path d="M244.03 111.68H273.03V108.05H244.03V97.1699H283.91V122.55H254.91V137.05L244.03 147.93V111.68Z" fill="white"/>
<path d="M294.31 137.06V97.1797H334.19V137.06H294.31ZM323.32 126.18V108.05H305.19V126.18H323.32Z" fill="white"/>
<path d="M93.29 96.83H104.25V118.74L133.47 89.52V136.99H122.51V116.9L93.29 146.13V96.83Z" fill="white"/>
<path d="M344.93 137.06V96.7899L355.21 85.6099V137.06H344.93Z" fill="white"/>
<path d="M142.66 137.21V97.3301H182.54V108.21H153.54V126.34H182.54V137.22H142.66V137.21Z" fill="white"/>
</svg>
