<svg width="567" height="153" viewBox="0 0 567 153" fill="none" xmlns="http://www.w3.org/2000/svg">
<path d="M478.36 51.6705V22.6705H463.86V11.7905H503.74V22.6705H489.24V51.6705H478.36Z" fill="white"/>
<path d="M513.73 51.6705L553.61 11.7905V51.6705H542.73V38.9805L530.04 51.6705H513.73Z" fill="white"/>
<path d="M309.43 11.7902H320.31V26.2902H338.44V11.7902L349.32 0.910156V51.6702H338.44V37.1702H320.31V51.6702L309.43 62.5502V11.7902Z" fill="white"/>
<path d="M150.32 22.6705V11.7905H190.2V22.6705H150.32ZM150.32 37.1705V26.2905H190.2V37.1705H150.32ZM150.32 51.6705V40.7905H190.2V51.6705H150.32Z" fill="white"/>
<path d="M50.02 22.6705V11.7905H89.9V22.6705H50.02ZM50.02 37.1705V26.2905H89.9V37.1705H50.02ZM50.02 51.6705V40.7905H89.9V51.6705H50.02Z" fill="white"/>
<path d="M14.6401 51.6705V22.6705H0.140137V11.7905H40.0201V22.6705H25.5201V51.6705H14.6401Z" fill="white"/>
<path d="M259.49 51.6705V11.7905H299.37V51.6705H259.49ZM288.49 40.7905V22.6605H270.36V40.7905H288.49Z" fill="white"/>
<path d="M393.54 35.9403L379.87 21.1303C380.04 20.7103 380.44 19.9803 381.08 18.9403C381.72 17.9003 382.41 16.8503 383.18 15.7903C383.94 14.7303 384.72 13.8003 385.5 12.9903C386.28 12.1903 386.91 11.7803 387.37 11.7803H420.17L425.51 20.7403L423.54 22.2003L422.97 51.6603C422.89 51.6603 411.49 51.6603 411.53 51.6603V21.7603H398.18C398.05 21.7603 397.87 21.8803 397.64 22.1103C397.41 22.3403 397.25 22.5703 397.16 22.7803L409.11 34.0303L382.9 62.5403L382.63 49.6003L393.54 35.9403Z" fill="white"/>
<path d="M99.9702 51.9605L140.14 11.7905V29.2705L116.4 51.9605H99.9702Z" fill="white"/>
<path d="M358.77 52.0203V11.7503L369.05 0.570312V52.0203H358.77Z" fill="white"/>
<path d="M219.48 26.2905H238.48V22.6605H219.48V11.7905H249.36V37.1705H230.36V51.6705L219.48 62.5505V26.2905Z" fill="white"/>
<path d="M230.25 41.7105L219.37 51.6705V37.1705H200.37V22.6705L210.68 11.7905H230.25V22.6705H211.25V26.3005H230.25V41.7105Z" fill="white"/>
<path d="M230.25 20.2607H219.37V37.1707H230.25V20.2607Z" fill="white"/>
<path d="M134.97 104.291V93.4106H174.85V104.291H134.97ZM134.97 118.791V107.911H174.85V118.791H134.97ZM134.97 133.291V122.411H174.85V133.291H134.97Z" fill="white"/>
<path d="M0.140137 107.91H29.1401V104.28H0.140137V93.4004H40.0201V118.78H11.0201H0.140137V107.91Z" fill="white"/>
<path d="M0.140137 122.41H29.1401V118.78H0.140137V107.9H40.0201V133.28H11.0201H0.140137V122.41Z" fill="white"/>
<path d="M184.86 133.291V93.4106H224.74V133.291H184.86ZM213.87 122.411V104.281H195.74V122.411H213.87Z" fill="white"/>
<path d="M400.75 93.0607H411.63V107.561H429.76V93.0607L440.64 82.1807V132.941H429.76V118.441H411.63V132.941L400.75 143.821V93.0607Z" fill="white"/>
<path d="M249.5 132.78V103.78H235V92.9004H274.88V103.78H260.38V132.78H249.5Z" fill="white"/>
<path d="M284.88 103.78V92.9004H324.76V103.78H284.88ZM284.88 118.28V107.4H324.76V118.28H284.88ZM284.88 132.78V121.9H324.76V132.78H284.88Z" fill="white"/>
<path d="M450.63 132.64V92.3704L460.92 81.1904V132.64H450.63Z" fill="white"/>
<path d="M481.79 118.28V132.78H470.91V92.9004H481.79V107.4L496.29 92.9004H512.6L492.66 112.84L516.23 136.41V152.73L481.79 118.28Z" fill="white"/>
<path d="M526.24 132.78L566.12 92.9004V132.78H555.24V120.09L542.55 132.78H526.24Z" fill="white"/>
<path d="M362.76 121.271L351.02 133.011H334.76L354.63 113.141L343.79 102.301V86.0405L362.75 105.001L374.49 93.2605H390.75L370.88 113.131L383.52 125.771V142.031L362.76 121.271Z" fill="white"/>
<path d="M50.02 133.64V93.3704L60.3101 82.1904V133.64H50.02Z" fill="white"/>
<path d="M117.84 122.12V92.5005H77.9603V122.12H70.6104V131.96L82.3403 152.32V132.38H113.46V152.32L125.19 131.96V122.12H117.84ZM88.8403 103.38H106.97V121.51H88.8403V103.38Z" fill="white"/>
</svg>
