<?xml version="1.0" encoding="UTF-8"?>
<svg enable-background="new 0 0 312 37" version="1.1" viewBox="0 0 312 37" xml:space="preserve" xmlns="http://www.w3.org/2000/svg">
<style type="text/css">
	.st0{fill:#E60000;}
	.st1{opacity:0.2;fill:#FFFFFF;}
	.st2{fill:#FFFFFF;}
</style>
<path class="st0" d="m56.85 19.23v-7.43h2.03v5.4h4.73v2.03h-6.76zm-3.04-5.4v-2.03h2.03v2.03h-2.03zm0 5.4v-4.73h2.03v4.73h-2.03zm-7.1 0v-7.43l7.43 7.43h-3.04l-2.36-2.36v2.36h-2.03zm-8.44 0v-7.43l3.72 3.72 3.72-3.72v7.43h-2.03v-2.36l-1.69 1.69-1.69-1.69v2.36h-2.03zm-8.44-2.7v-2.03h7.43v2.03h-7.43zm-8.45-2.7v-2.03h7.43v2.03h-7.43zm0 2.7v-2.03h7.43v2.03h-7.43zm0 2.7v-2.03h7.43v2.03h-7.43z"/>
<path class="st1" d="m79.6 15.8h225.02v-0.98h-225.02v0.98zm-15.1 12.13 15.54-12.28-0.88-0.69-15.54 12.28 0.88 0.69zm-58.87 0.15h58.43v-0.98h-58.43v0.98zm73.97-12.78v-0.49h-0.26l-0.18 0.14 0.44 0.35zm-15.54 12.29v0.49h0.26l0.18-0.14-0.44-0.35z"/>
<polygon class="st2" points="88.69 18.25 82.14 24.15 75.91 24.15 82.46 18.25"/>
<polygon class="st2" points="98.51 18.25 91.96 24.15 85.74 24.15 92.29 18.25"/>
<polygon class="st2" points="108.34 18.25 101.79 24.15 95.57 24.15 102.12 18.25"/>
<polygon class="st2" points="118.16 18.25 111.61 24.15 105.39 24.15 111.94 18.25"/>
</svg>
