<?xml version="1.0" encoding="UTF-8"?>
<svg enable-background="new 0 0 312 32" version="1.1" viewBox="0 0 312 32" xml:space="preserve" xmlns="http://www.w3.org/2000/svg">
<style type="text/css">
	.st0{fill:#E60000;}
	.st1{opacity:0.2;fill:#FFFFFF;}
	.st2{fill:#FFFFFF;}
</style>
<path class="st0" d="m55.54 17.19v-8.8h1.88v2.51h3.14v-2.51l1.88-1.88v8.8h-1.88v-2.51h-3.14v2.51l-1.88 1.88zm-7.86-1.89v-6.91h6.91v6.91h-6.91zm5.03-1.88v-3.14h-3.14v3.14h3.14zm-9.13-5.03h3.63v6.91h-3.63v0.39l-1.88 1.59v-1.98h-3.63v-6.91h3.63v-0.94h1.88v0.94zm0 5.03h1.75v-3.14h-1.75v3.14zm-1.89 0v-3.14h-1.75v3.14h1.75zm-11.48-3.14v-1.89h6.91v1.88h-6.91zm0 2.51v-1.88h6.91v1.88h-6.91zm0 2.51v-1.88h6.91v1.88h-6.91zm-7.38 0 3.57-6.91 3.34 6.91h-2.28l-1.06-2.2-1.14 2.2h-2.43zm-7.86-5.02v-1.89h6.91v1.88h-6.91zm0 2.51v-1.88h6.91v1.88h-6.91zm0 2.51v-1.88h6.91v1.88h-6.91zm-5.34 0v-5.03h-2.51v-1.88h6.91v1.88h-2.51v5.03h-1.89z"/>
<path class="st1" d="m79.6 11.8h225.02v-0.98h-225.02v0.98zm-15.1 12.13 15.54-12.28-0.88-0.69-15.54 12.28 0.88 0.69zm-58.87 0.15h58.43v-0.98h-58.43v0.98zm73.97-12.78v-0.49h-0.26l-0.18 0.14 0.44 0.35zm-15.54 12.29v0.49h0.26l0.18-0.14-0.44-0.35z"/>
<polygon class="st2" points="88.69 14.25 82.14 20.15 75.91 20.15 82.46 14.25"/>
<polygon class="st2" points="98.51 14.25 91.96 20.15 85.74 20.15 92.29 14.25"/>
<polygon class="st2" points="108.34 14.25 101.79 20.15 95.57 20.15 102.12 14.25"/>
<polygon class="st2" points="118.16 14.25 111.61 20.15 105.39 20.15 111.94 14.25"/>
</svg>
