<?xml version="1.0" encoding="utf-8"?>
<!-- Generator: Adobe Illustrator 24.0.2, SVG Export Plug-In . SVG Version: 6.00 Build 0)  -->
<svg version="1.1" id="Слой_1" xmlns="http://www.w3.org/2000/svg" xmlns:xlink="http://www.w3.org/1999/xlink" x="0px" y="0px"
	 viewBox="0 0 1972.91 1922.25" style="enable-background:new 0 0 1972.91 1922.25;" xml:space="preserve">
<style type="text/css">
	.st0{fill:#FFFFFF;}
</style>
<g id="foo">
	<g>
		<path class="st0" d="M74.53,752.34v29.22H63.57v-40.17h36.52v40.17H89.13v-29.22H74.53z"/>
		<path class="st0" d="M486.86,741.38h10.88v14.5h18.13v-14.5l10.88-10.88v50.76h-10.88v-14.5h-18.13v14.5l-10.88,10.88V741.38z"/>
		<path class="st0" d="M110.09,752.26v-10.88h39.88v10.88H110.09z M110.09,766.76v-10.88h39.88v10.88H110.09z M110.09,781.26v-10.88
			h39.88v10.88H110.09z"/>
		<path class="st0" d="M209.12,752.26v-10.88H249v10.88H209.12z M209.12,766.76v-10.88H249v10.88H209.12z M209.12,781.26v-10.88H249
			v10.88H209.12z"/>
		<path class="st0" d="M316.83,752.26v-10.88h39.88v10.88H316.83z M316.83,766.76v-10.88h39.88v10.88H316.83z M316.83,781.26v-10.88
			h39.88v10.88H316.83z"/>
		<path class="st0" d="M159.97,755.89h29v-3.63h-29v-10.88h39.88v25.38h-29v14.5l-10.88,10.88V755.89z"/>
		<path class="st0" d="M366.9,755.89h29v-3.63h-29v-10.88h39.88v25.38h-29v14.5l-10.88,10.88V755.89z"/>
		<g>
			<path class="st0" d="M276.96,755.89h19v-3.63h-19v-10.88h29.88v25.38h-19v14.5l-10.88,10.88V755.89z"/>
			<path class="st0" d="M287.73,771.31l-10.88,9.96v-14.5h-19v-14.5l10.31-10.88h19.57v10.88h-19v3.63h19V771.31z"/>
			<rect x="276.85" y="749.85" class="st0" width="10.88" height="16.91"/>
		</g>
		<path class="st0" d="M436.69,741.15h10.96v21.91l29.22-29.22v47.47h-10.96v-20.09l-29.22,29.22V741.15z M450.62,755.64
			l10.96-10.96v-10.96h-10.96V755.64z"/>
		<polygon class="st0" points="416.36,781.26 416.36,740.99 426.64,729.81 426.64,781.26 		"/>
		<polygon class="st0" points="536.75,781.26 536.75,740.99 547.03,729.81 547.03,781.26 		"/>
	</g>
	<g>
		<path class="st0" d="M74.53,837.1v29.22H63.57v-40.17h36.52v40.17H89.13V837.1H74.53z"/>
		<path class="st0" d="M269.79,866.03v-29h-14.5v-10.88h39.88v10.88h-14.5v29H269.79z"/>
		<path class="st0" d="M108.16,840.65h29v-3.63h-29v-10.88h39.88v25.38h-29v14.5l-10.88,10.88V840.65z"/>
		<path class="st0" d="M307.24,840.65h29v-3.63h-29v-10.88h39.88v25.38h-29v14.5l-10.88,10.88V840.65z"/>
		<path class="st0" d="M357.52,866.03v-39.88h39.88v39.88H357.52z M386.53,855.15v-18.13H368.4v18.13H386.53z"/>
		<path class="st0" d="M156.5,825.8h10.96v21.91l29.22-29.22v47.47h-10.96v-20.09L156.5,875.1V825.8z"/>
		<polygon class="st0" points="408.14,866.03 408.14,825.76 418.42,814.58 418.42,866.03 		"/>
		<path class="st0" d="M205.87,866.18v-39.88h39.88v10.88h-29v18.13h29v10.88H205.87z"/>
	</g>
</g>
<g id="bar">
	<g>
		<path class="st0" d="M418.13,967.69h10.88v21.75l29-29v47.13h-10.88v-19.94l-29,29V967.69z"/>
		<path class="st0" d="M577.63,967.88v14.5h29v25.38h-39.88v-10.88h29v-3.63h-29v-36.26L577.63,967.88z M620.57,1007.54v-39.88
			h-10.88v39.88H620.57z"/>
		<path class="st0" d="M74.43,978.84v29.22H63.47v-40.17h36.52v40.17H89.03v-29.22H74.43z"/>
		<path class="st0" d="M517.85,967.88h10.88v14.5h18.13v-14.5l10.88-10.88v50.76h-10.88v-14.5h-18.13v14.5l-10.88,10.88V967.88z"/>
		<path class="st0" d="M109.99,978.76v-10.88h39.88v10.88H109.99z M109.99,993.26v-10.88h39.88v10.88H109.99z M109.99,1007.77
			v-10.88h39.88v10.88H109.99z"/>
		<path class="st0" d="M209.75,978.76v-10.88h39.88v10.88H209.75z M209.75,993.26v-10.88h39.88v10.88H209.75z M209.75,1007.77
			v-10.88h39.88v10.88H209.75z"/>
		<path class="st0" d="M630.45,978.76v-10.88h39.88v10.88H630.45z M630.45,993.26v-10.88h39.88v10.88H630.45z M630.45,1007.77
			v-10.88h39.88v10.88H630.45z"/>
		<path class="st0" d="M318.62,978.76v-10.88h39.88v10.88H318.62z M318.62,993.26v-10.88h39.88v10.88H318.62z M318.62,1007.77
			v-10.88h39.88v10.88H318.62z"/>
		<path class="st0" d="M159.87,982.39h29v-3.63h-29v-10.88h39.88v25.38h-29v14.5l-10.88,10.88V982.39z"/>
		<path class="st0" d="M368.69,982.39h29v-3.63h-29v-10.88h39.88v25.38h-29v14.5l-10.88,10.88V982.39z"/>
		<g>
			<path class="st0" d="M278.75,982.39h19v-3.63h-19v-10.88h29.88v25.38h-19v14.5l-10.88,10.88V982.39z"/>
			<path class="st0" d="M289.52,997.81l-10.88,9.96v-14.5h-19v-14.5l10.31-10.88h19.57v10.88h-19v3.63h19V997.81z"/>
			<rect x="278.64" y="976.35" class="st0" width="10.88" height="16.91"/>
		</g>
		<path class="st0" d="M468.53,967.86h10.96v21.91l29.22-29.22v47.47h-10.96v-20.09l-29.22,29.22V967.86z M482.45,982.35
			l10.96-10.96v-10.96h-10.96V982.35z"/>
	</g>
	<g>
		<path class="st0" d="M63.47,1047.01h16.31l19.94,19.94v-19.94h10.88v41.69l-31.59,31.59l2.59-18.9l18.13-18.13L63.47,1047.01z"/>
		<path class="st0" d="M184.97,1086.89v-29h-14.5v-10.88h39.88v10.88h-14.5v29H184.97z"/>
		<path class="st0" d="M436.01,1086.89v-29h-14.5v-10.88h39.88v10.88h-14.5v29H436.01z"/>
		<path class="st0" d="M221.26,1061.51h29v-3.63h-29v-10.88h39.88v25.38h-29v14.5l-10.88,10.88V1061.51z"/>
		<g>
			<path class="st0" d="M471.39,1061.51h29v-3.63h-29v-10.88h39.88v25.38h-29h-10.88V1061.51z"/>
			<path class="st0" d="M471.39,1076.02h29v-3.63h-29v-10.88h39.88v25.38h-29h-10.88V1076.02z"/>
		</g>
		<path class="st0" d="M521.27,1086.89l39.88-39.88v39.88h-10.88v-12.69l-12.69,12.69H521.27z"/>
		<path class="st0" d="M271.08,1086.89v-39.88h39.88v39.88H271.08z M300.09,1076.02v-18.13h-18.13v18.13H300.09z"/>
		<path class="st0" d="M321.02,1047.01h10.96v21.91l29.22-29.22v47.47h-10.96v-20.09l-29.22,29.22V1047.01z M334.94,1061.51
			l10.96-10.96v-10.96h-10.96V1061.51z"/>
		<path class="st0" d="M120.59,1086.67v-39.88h39.88v10.88h-29v18.13h29v10.88H120.59z"/>
		<path class="st0" d="M371.63,1086.67v-39.88h39.88v10.88h-29v18.13h29v10.88H371.63z"/>
	</g>
</g>
<g>
	<g>
		<path class="st0" d="M1097.35,644.83h10.88v21.75l29-29v47.13h-10.88v-19.94l-29,29V644.83z"/>
		<g>
			<path class="st0" d="M1162.61,644.83h10.88v14.5h18.13v-14.5l10.88-10.88v50.76h-10.88v-14.5h-18.13v14.5l-10.88,10.88V644.83z"
				/>
			<path class="st0" d="M1207.93,684.72v-39.88h39.88v39.88H1207.93z M1236.94,673.84v-18.13h-18.13v18.13H1236.94z"/>
			<path class="st0" d="M1246,644.83h16.31l19.94,19.94v-19.94h10.88v41.69l-31.59,31.59l2.59-18.9l18.13-18.13L1246,644.83z"/>
			<path class="st0" d="M1383.77,644.83h16.31l19.94,19.94v-19.94h10.88v41.69l-31.59,31.59l2.59-18.9l18.13-18.13L1383.77,644.83z"
				/>
			<path class="st0" d="M1313.07,684.72v-29h-14.5v-10.88h39.88v10.88h-14.5v29H1313.07z"/>
			<path class="st0" d="M1343.89,684.72v-39.88h39.88l-10.88,10.88h-18.13v3.63h29v25.38H1343.89z M1372.9,673.84v-3.63h-18.13v3.63
				H1372.9z"/>
			<path class="st0" d="M1445.41,670.21v14.5h-10.88v-39.88h10.88v14.5l14.5-14.5h16.31l-19.94,19.94l23.57,23.57v16.32
				L1445.41,670.21z"/>
			<path class="st0" d="M1481.66,644.83h10.88v21.75l29-29v47.13h-10.88v-19.94l-29,29V644.83z"/>
		</g>
	</g>
	<g>
		<path class="st0" d="M1108.23,586.5v14.5h-10.88v-39.88h10.88v14.5l14.5-14.5h16.31l-19.94,19.94l23.57,23.57v16.32L1108.23,586.5
			z"/>
		<path class="st0" d="M1144.48,601.01v-39.88h39.88v39.88H1144.48z M1173.49,590.13V572h-18.13v18.13H1173.49z"/>
		<path class="st0" d="M1189.8,601.01v-39.88l19.94,19.94l19.94-19.94v39.88h-10.88v-12.69l-9.06,9.06l-9.06-9.06v12.69H1189.8z"/>
		<path class="st0" d="M1246,572v29h-10.88v-39.88h36.26v39.88h-10.88v-29H1246z"/>
		<path class="st0" d="M1336.64,575.63v-14.5h39.88v39.88h-39.88v-14.5h-3.63v14.5h-10.88v-39.88h10.88v14.5H1336.64z
			 M1365.65,590.13V572h-18.13v18.13H1365.65z"/>
		<path class="st0" d="M1396.46,601.01v-29h-14.5v-10.88h39.88V572h-14.5v29H1396.46z"/>
		<path class="st0" d="M1427.28,572v-10.88h39.88V572H1427.28z M1427.28,586.5v-10.88h39.88v10.88H1427.28z M1427.28,601.01v-10.88
			h39.88v10.88H1427.28z"/>
		<path class="st0" d="M1472.6,575.63h29V572h-29v-10.88h39.88v25.38h-29v14.5l-10.88,10.88V575.63z"/>
		<path class="st0" d="M1528.8,561.35v14.5h29v25.38h-39.88v-10.88h29v-3.63h-29v-36.26L1528.8,561.35z M1571.74,601.01v-39.88
			h-10.88v39.88H1571.74z"/>
		<polygon class="st0" points="1287.7,561.35 1287.7,575.85 1316.7,575.85 1316.7,601.23 1276.82,601.23 1276.82,590.36 
			1305.82,590.36 1305.82,586.73 1276.82,586.73 1276.82,550.47 		"/>
	</g>
</g>
<g>
	<g>
		<path class="st0" d="M1148.11,821.21v-39.88h39.88v39.88H1148.11z M1177.11,810.33V792.2h-18.13v18.13H1177.11z"/>
		<path class="st0" d="M1193.43,821.21v-39.88l19.94,19.94l19.94-19.94v39.88h-10.88v-12.69l-9.06,9.06l-9.06-9.06v12.69H1193.43z"
			/>
		<path class="st0" d="M1249.63,792.2v29h-10.88v-39.88h36.26v39.88h-10.88v-29H1249.63z"/>
		<path class="st0" d="M1290.32,770.68v19.94l-10.88-8.55v-11.39L1290.32,770.68z"/>
		<path class="st0" d="M1309.26,795.83v-14.5h39.88v39.88h-39.88v-14.5h-3.63v14.5h-10.88v-39.88h10.88v14.5H1309.26z
			 M1338.27,810.33V792.2h-18.13v18.13H1338.27z"/>
		<path class="st0" d="M1369.08,821.21v-29h-14.5v-10.88h39.88v10.88h-14.5v29H1369.08z"/>
		<path class="st0" d="M1399.9,792.2v-10.88h39.88v10.88H1399.9z M1399.9,806.71v-10.88h39.88v10.88H1399.9z M1399.9,821.21v-10.88
			h39.88v10.88H1399.9z"/>
		<path class="st0" d="M1445.22,795.83h29v-3.63h-29v-10.88h39.88v25.38h-29v14.5l-10.88,10.88V795.83z"/>
		<path class="st0" d="M1108.23,806.71v14.5h-10.88v-39.88h10.88v14.5l14.5-14.5h16.31l-19.94,19.94l23.57,23.57v16.32
			L1108.23,806.71z"/>
		<path class="st0" d="M1490.54,780.53h10.88v21.75l29-29v47.13h-10.88v-19.94l-29,29V780.53z"/>
	</g>
	<g>
		<g>
			<path class="st0" d="M1218.54,860.2h10.88v14.5h18.13v-14.5l10.88-10.88v50.76h-10.88v-14.5h-18.13v14.5l-10.88,10.88V860.2z"/>
			<path class="st0" d="M1263.86,900.08V860.2h39.88v39.88H1263.86z M1292.87,889.2v-18.13h-18.13v18.13H1292.87z"/>
			<path class="st0" d="M1301.93,860.2h16.31l19.94,19.94V860.2h10.88v41.69l-31.59,31.59l2.59-18.9l18.13-18.13L1301.93,860.2z"/>
			<path class="st0" d="M1439.71,860.2h16.31l19.94,19.94V860.2h10.88v41.69l-31.59,31.59l2.59-18.9l18.13-18.13L1439.71,860.2z"/>
			<path class="st0" d="M1369.01,900.08v-29h-14.5V860.2h39.88v10.88h-14.5v29H1369.01z"/>
			<path class="st0" d="M1399.82,900.08V860.2h39.88l-10.88,10.88h-18.13v3.63h29v25.38H1399.82z M1428.83,889.2v-3.63h-18.13v3.63
				H1428.83z"/>
			<path class="st0" d="M1501.34,885.58v14.5h-10.88V860.2h10.88v14.5l14.5-14.5h16.31l-19.94,19.94l23.57,23.57v16.32
				L1501.34,885.58z"/>
			<path class="st0" d="M1537.6,860.2h10.88v21.75l29-29v47.13h-10.88v-19.94l-29,29V860.2z"/>
		</g>
		<g>
			<path class="st0" d="M1111.85,903.36v-29h-14.5v-10.88h39.88v10.88h-14.5v29H1111.85z"/>
			<path class="st0" d="M1136.8,903.36l39.88-39.88v39.88h-10.88v-12.69l-12.69,12.69H1136.8z"/>
		</g>
	</g>
</g>
<g>
	<g>
		<path class="st0" d="M257.93,1791h16.31l19.94,19.94V1791h10.88v41.69l-31.59,31.59l2.59-18.9l18.13-18.13L257.93,1791z"/>
		<g>
			<path class="st0" d="M431.75,1805.5h29v-3.63h-29V1791h39.88v25.38h-29h-10.88V1805.5z"/>
			<path class="st0" d="M431.75,1820h29v-3.63h-29v-10.88h39.88v25.38h-29h-10.88V1820z"/>
		</g>
		<path class="st0" d="M481.64,1830.88l39.88-39.88v39.88h-10.88v-12.69l-12.69,12.69H481.64z"/>
		<path class="st0" d="M581.4,1791.18h10.88v21.75l29-29v47.13H610.4v-19.94l-29,29V1791.18z"/>
		<path class="st0" d="M362.3,1820.62V1791h-39.88v29.62h-7.35v9.84l11.73,20.36v-19.94h31.12v19.94l11.73-20.36v-9.84H362.3z
			 M333.29,1801.87h18.13V1820h-18.13V1801.87z"/>
		<path class="st0" d="M531.52,1791h10.88v14.5h18.13V1791l10.88-10.88v50.76h-10.88v-14.5h-18.13v14.5l-10.88,10.88V1791z"/>
		<path class="st0" d="M631.42,1801.87V1791h39.88v10.88H631.42z M631.42,1816.38v-10.88h39.88v10.88H631.42z M631.42,1830.88V1820
			h39.88v10.88H631.42z"/>
		<path class="st0" d="M208.05,1805.5h29v-3.63h-29V1791h39.88v25.38h-29v14.5l-10.88,10.88V1805.5z"/>
		<path class="st0" d="M64.27,1830.88V1791h39.88v39.88H64.27z M93.28,1820v-18.13H75.15V1820H93.28z"/>
		<path class="st0" d="M158.17,1830.88V1791h39.88v39.88H158.17z M187.17,1820v-18.13h-18.13V1820H187.17z"/>
		<path class="st0" d="M380.21,1830.88V1791h39.88v39.88H380.21z M409.21,1820v-18.13h-18.13V1820H409.21z"/>
		<g>
			<path class="st0" d="M123.43,1800.27v8.96h24.74v21.65h-34.02v-9.28h24.74v-3.09h-24.74V1791L123.43,1800.27z"/>
			<polygon class="st0" points="123.43,1800.27 148.17,1800.27 148.17,1791 114.15,1791 121.31,1800.27 			"/>
		</g>
	</g>
	<g>
		<path class="st0" d="M543.21,1709.05h10.88v21.75l29-29v47.13h-10.88v-19.94l-29,29V1709.05z"/>
		<g>
			<path class="st0" d="M413.44,1748.74v-39.88h39.88v39.88H413.44z M442.45,1737.87v-18.13h-18.13v18.13H442.45z"/>
			<path class="st0" d="M363.56,1709.86h10.88v14.5h18.13v-14.5l10.88-10.88v50.76h-10.88v-14.5h-18.13v14.5l-10.88,10.88V1709.86z"
				/>
			<path class="st0" d="M114.15,1719.74v-10.88h39.88v10.88H114.15z M114.15,1734.24v-10.88h39.88v10.88H114.15z M114.15,1748.74
				v-10.88h39.88v10.88H114.15z"/>
			<path class="st0" d="M263.8,1719.74v-10.88h39.88v10.88H263.8z M263.8,1734.24v-10.88h39.88v10.88H263.8z M263.8,1748.74v-10.88
				h39.88v10.88H263.8z"/>
			<path class="st0" d="M463.33,1719.74v-10.88h39.88v10.88H463.33z M463.33,1734.24v-10.88h39.88v10.88H463.33z M463.33,1748.74
				v-10.88h39.88v10.88H463.33z"/>
			<path class="st0" d="M164.03,1723.36h29v-3.63h-29v-10.88h39.88v25.38h-29v14.5l-10.88,10.88V1723.36z"/>
			<path class="st0" d="M313.68,1723.36h29v-3.63h-29v-10.88h39.88v25.38h-29v14.5l-10.88,10.88V1723.36z"/>
			<g>
				<path class="st0" d="M213.92,1723.36h29v-3.63h-29v-10.88h39.88v25.38h-29h-10.88V1723.36z"/>
				<path class="st0" d="M213.92,1737.87h29v-3.63h-29v-10.88h39.88v25.38h-29h-10.88V1737.87z"/>
			</g>
			<path class="st0" d="M64.27,1748.74v-39.88h39.88v10.88h-29v18.13h29v10.88H64.27z"/>
		</g>
		<g>
			<path class="st0" d="M737.35,1748.74v-29h-14.5v-10.88h39.88v10.88h-14.5v29H737.35z"/>
			<path class="st0" d="M872.5,1748.74v-39.88h39.88v39.88H872.5z M901.5,1737.87v-18.13h-18.13v18.13H901.5z"/>
			<path class="st0" d="M672.97,1719.74v-10.88h39.88v10.88H672.97z M672.97,1734.24v-10.88h39.88v10.88H672.97z M672.97,1748.74
				v-10.88h39.88v10.88H672.97z"/>
			<path class="st0" d="M772.73,1719.74v-10.88h39.88v10.88H772.73z M772.73,1734.24v-10.88h39.88v10.88H772.73z M772.73,1748.74
				v-10.88h39.88v10.88H772.73z"/>
			<path class="st0" d="M922.38,1719.74v-10.88h39.88v10.88H922.38z M922.38,1734.24v-10.88h39.88v10.88H922.38z M922.38,1748.74
				v-10.88h39.88v10.88H922.38z"/>
			<g>
				<path class="st0" d="M822.61,1723.36h29v-3.63h-29v-10.88h39.88v25.38h-29h-10.88V1723.36z"/>
				<path class="st0" d="M822.61,1737.87h29v-3.63h-29v-10.88h39.88v25.38h-29h-10.88V1737.87z"/>
			</g>
			<path class="st0" d="M623.09,1748.74v-39.88h39.88v10.88h-29v18.13h29v10.88H623.09z"/>
		</g>
	</g>
</g>
<g>
	<path class="st0" d="M1280.44,1257.4l40.17-40.17v17.48l-23.74,22.69H1280.44z"/>
	<path class="st0" d="M1475.65,1217.23h16.31l19.94,19.94v-19.94h10.88v41.69l-31.59,31.59l2.59-18.9l18.13-18.13L1475.65,1217.23z"
		/>
	<path class="st0" d="M1148.11,1257.04v-39.88h39.88v39.88H1148.11z M1177.11,1246.16v-18.13h-18.13v18.13H1177.11z"/>
	<path class="st0" d="M1193.43,1257.04v-39.88l19.94,19.94l19.94-19.94v39.88h-10.88v-12.69l-9.06,9.06l-9.06-9.06v12.69H1193.43z"
		/>
	<path class="st0" d="M1249.63,1228.03v29h-10.88v-39.88h36.26v39.88h-10.88v-29H1249.63z"/>
	<path class="st0" d="M1547.06,1231.73v-14.5h39.88v39.88h-39.88v-14.5h-3.63v14.5h-10.88v-39.88h10.88v14.5H1547.06z
		 M1576.06,1246.23v-18.13h-18.13v18.13H1576.06z"/>
	<path class="st0" d="M1442.94,1257.11v-29h-14.5v-10.88h39.88v10.88h-14.5v29H1442.94z"/>
	<path class="st0" d="M1329.46,1228.1v-10.88h39.88v10.88H1329.46z M1329.46,1242.61v-10.88h39.88v10.88H1329.46z M1329.46,1257.11
		v-10.88h39.88v10.88H1329.46z"/>
	<path class="st0" d="M1108.23,1242.54v14.5h-10.88v-39.88h10.88v14.5l14.5-14.5h16.31l-19.94,19.94l23.57,23.57v16.32
		L1108.23,1242.54z"/>
	<path class="st0" d="M1389.28,1242.61v14.5h-10.88v-39.88h10.88v14.5l14.5-14.5h16.31l-19.94,19.94l23.57,23.57v16.32
		L1389.28,1242.61z"/>
	<g>
		<polygon class="st0" points="1619.08,1257.11 1619.08,1216.84 1629.36,1205.66 1629.36,1257.11 		"/>
		<polygon class="st0" points="1594.63,1235.01 1594.63,1216.84 1604.92,1205.66 1604.92,1235.01 		"/>
		<rect x="1594.63" y="1231.38" class="st0" width="33.77" height="9.06"/>
	</g>
	<polygon class="st0" points="1638.97,1257.11 1638.97,1216.84 1649.26,1205.66 1649.26,1257.11 	"/>
</g>
<g>
	<path class="st0" d="M1678.93,1400.84h10.88v21.75l29-29v47.13h-10.88v-19.94l-29,29V1400.84z"/>
	<g>
		<path class="st0" d="M1664.39,1431.35v-1.31v-28.51c0,0-13.22,0-13.17,0v14.02h-0.07v10.8v4.46h-14.08v-4.46v-10.8v-14.08h-0.56
			c-0.09,0-12.66,0-12.61,0v34.29v5.71h33.47v20.08l11.73-20.36v-9.84H1664.39z"/>
		<path class="st0" d="M1636.05,1401.53c0,0-13.22,0-13.17,0v14.02h-0.07v10.8v4.46h-14.08v-4.46v-10.8v-14.08h-0.56
			c-0.09,0-12.66,0-12.61,0v34.29v5.71h33.47"/>
	</g>
	<path class="st0" d="M1280.44,1441.77l40.17-40.17v17.48l-23.74,22.69H1280.44z"/>
	<path class="st0" d="M1475.65,1401.6h16.31l19.94,19.94v-19.94h10.88v41.69l-31.59,31.59l2.59-18.9l18.13-18.13L1475.65,1401.6z"/>
	<path class="st0" d="M1148.11,1441.41v-39.88h39.88v39.88H1148.11z M1177.11,1430.54v-18.13h-18.13v18.13H1177.11z"/>
	<path class="st0" d="M1193.43,1441.41v-39.88l19.94,19.94l19.94-19.94v39.88h-10.88v-12.69l-9.06,9.06l-9.06-9.06v12.69H1193.43z"
		/>
	<path class="st0" d="M1249.63,1412.41v29h-10.88v-39.88h36.26v39.88h-10.88v-29H1249.63z"/>
	<path class="st0" d="M1547.06,1416.11v-14.5h39.88v39.88h-39.88v-14.5h-3.63v14.5h-10.88v-39.88h10.88v14.5H1547.06z
		 M1576.06,1430.61v-18.13h-18.13v18.13H1576.06z"/>
	<path class="st0" d="M1442.94,1441.48v-29h-14.5v-10.88h39.88v10.88h-14.5v29H1442.94z"/>
	<path class="st0" d="M1329.46,1412.48v-10.88h39.88v10.88H1329.46z M1329.46,1426.98v-10.88h39.88v10.88H1329.46z M1329.46,1441.48
		v-10.88h39.88v10.88H1329.46z"/>
	<path class="st0" d="M1727.41,1412.48v-10.88h39.88v10.88H1727.41z M1727.41,1426.98v-10.88h39.88v10.88H1727.41z M1727.41,1441.48
		v-10.88h39.88v10.88H1727.41z"/>
	<path class="st0" d="M1108.23,1426.91v14.5h-10.88v-39.88h10.88v14.5l14.5-14.5h16.31l-19.94,19.94l23.57,23.57v16.32
		L1108.23,1426.91z"/>
	<path class="st0" d="M1389.28,1426.98v14.5h-10.88v-39.88h10.88v14.5l14.5-14.5h16.31l-19.94,19.94l23.57,23.57v16.32
		L1389.28,1426.98z"/>
</g>
<g>
	<g>
		<path class="st0" d="M64.43,1520.19v-39.88l19.94,19.94l19.94-19.94v39.88H93.43v-12.69l-9.06,9.06l-9.06-9.06v12.69H64.43z"/>
		<path class="st0" d="M114.31,1491.19v-10.88h39.88v10.88H114.31z M114.31,1505.69v-10.88h39.88v10.88H114.31z M114.31,1520.19
			v-10.88h39.88v10.88H114.31z"/>
		<path class="st0" d="M214.08,1491.19v-10.88h39.88v10.88H214.08z M214.08,1505.69v-10.88h39.88v10.88H214.08z M214.08,1520.19
			v-10.88h39.88v10.88H214.08z"/>
		<path class="st0" d="M453.19,1491.19v-10.88h39.88v10.88H453.19z M453.19,1505.69v-10.88h39.88v10.88H453.19z M453.19,1520.19
			v-10.88h39.88v10.88H453.19z"/>
		<path class="st0" d="M353.43,1491.19v-10.88h39.88v10.88H353.43z M353.43,1505.69v-10.88h39.88v10.88H353.43z M353.43,1520.19
			v-10.88h39.88v10.88H353.43z"/>
		<path class="st0" d="M164.19,1494.81h29v-3.63h-29v-10.88h39.88v25.38h-29v14.5l-10.88,10.88V1494.81z"/>
		<g>
			<path class="st0" d="M403.31,1494.81h29v-3.63h-29v-10.88h39.88v25.38h-29h-10.88V1494.81z"/>
			<path class="st0" d="M403.31,1509.32h29v-3.63h-29v-10.88h39.88v25.38h-29h-10.88V1509.32z"/>
		</g>
		<g>
			<path class="st0" d="M263.96,1480.31h15.57l19.03,19.03v-19.03h10.38v39.8h-10.38v-5.19L263.96,1480.31z"/>
			<polygon class="st0" points="263.96,1520.48 288.53,1499.35 294.12,1507.44 279.53,1520.48 			"/>
			<path class="st0" d="M308.82,1514.92v5.19h-10.38v-39.8h10.38v19.03l19.03-19.03h15.57L308.82,1514.92z"/>
			<polygon class="st0" points="343.43,1520.48 318.85,1499.35 313.26,1507.44 327.85,1520.48 			"/>
		</g>
	</g>
	<g>
		<g>
			<path class="st0" d="M507.99,1444.28v-29h-14.5v-10.88h39.88v10.88h-14.5v29H507.99z"/>
			<path class="st0" d="M532.93,1444.28l39.88-39.88v39.88h-10.88v-12.69l-12.69,12.69H532.93z"/>
		</g>
		<g>
			<path class="st0" d="M363.72,1404.4h10.88v14.5h18.13v-14.5l10.88-10.88v50.76h-10.88v-14.5H374.6v14.5l-10.88,10.88V1404.4z"/>
			<path class="st0" d="M114.31,1415.27v-10.88h39.88v10.88H114.31z M114.31,1429.78v-10.88h39.88v10.88H114.31z M114.31,1444.28
				v-10.88h39.88v10.88H114.31z"/>
			<path class="st0" d="M263.96,1415.27v-10.88h39.88v10.88H263.96z M263.96,1429.78v-10.88h39.88v10.88H263.96z M263.96,1444.28
				v-10.88h39.88v10.88H263.96z"/>
			<path class="st0" d="M413.6,1415.27v-10.88h39.88v10.88H413.6z M413.6,1429.78v-10.88h39.88v10.88H413.6z M413.6,1444.28v-10.88
				h39.88v10.88H413.6z"/>
			<path class="st0" d="M164.19,1418.9h29v-3.63h-29v-10.88h39.88v25.38h-29v14.5l-10.88,10.88V1418.9z"/>
			<path class="st0" d="M313.84,1418.9h29v-3.63h-29v-10.88h39.88v25.38h-29v14.5l-10.88,10.88V1418.9z"/>
			<g>
				<path class="st0" d="M214.07,1418.9h29v-3.63h-29v-10.88h39.88v25.38h-29h-10.88V1418.9z"/>
				<path class="st0" d="M214.07,1433.4h29v-3.63h-29v-10.88h39.88v25.38h-29h-10.88V1433.4z"/>
			</g>
			<path class="st0" d="M64.43,1444.28v-39.88h39.88v10.88h-29v18.13h29v10.88H64.43z"/>
		</g>
	</g>
	<g>
		<g>
			<path class="st0" d="M305.61,1592.19v-29.62h-39.88v29.62h-7.35v9.84l11.73,20.36v-19.94h31.12v19.94l11.73-20.36v-9.84H305.61z
				 M276.6,1573.45h18.13v18.13H276.6V1573.45z"/>
			<path class="st0" d="M323.45,1562.57h10.88v14.5h18.13v-14.5l10.88-10.88v50.76h-10.88v-14.5h-18.13v14.5l-10.88,10.88V1562.57z"
				/>
			<path class="st0" d="M424.22,1562.57h10.88v14.5h18.13v-14.5l10.88-10.88v50.76h-10.88v-14.5H435.1v14.5l-10.88,10.88V1562.57z"
				/>
			<path class="st0" d="M475.26,1562.57h10.88v14.5h18.13v-14.5l10.88-10.88v50.76h-10.88v-14.5h-18.13v14.5l-10.88,10.88V1562.57z"
				/>
			<path class="st0" d="M208.5,1602.45l39.88-39.88v39.88H237.5v-12.69l-12.69,12.69H208.5z"/>
			<path class="st0" d="M373.68,1602.45l39.88-39.88v39.88h-10.88v-12.69l-12.69,12.69H373.68z"/>
			<path class="st0" d="M64.43,1602.45v-39.88h39.88v39.88H64.43z M93.43,1591.58v-18.13H75.31v18.13H93.43z"/>
			<g>
				<path class="st0" d="M123.59,1571.85v8.96h24.74v21.65h-34.02v-9.28h24.74v-3.09h-24.74v-27.51L123.59,1571.85z"/>
				<polygon class="st0" points="123.59,1571.85 148.33,1571.85 148.33,1562.57 114.31,1562.57 121.47,1571.85 				"/>
			</g>
			<path class="st0" d="M538.55,1586.72l-13.67-14.81c0.17-0.42,0.57-1.15,1.21-2.19c0.64-1.04,1.33-2.09,2.1-3.15
				c0.76-1.06,1.54-1.99,2.32-2.8c0.78-0.8,1.41-1.21,1.87-1.21h32.8l5.34,8.96l-1.97,1.46l-0.57,29.46c-0.08,0-11.48,0-11.44,0
				v-29.9h-13.35c-0.13,0-0.31,0.12-0.54,0.35c-0.23,0.23-0.39,0.46-0.48,0.67l11.95,11.25l-26.21,28.51l-0.27-12.94L538.55,1586.72
				z"/>
			<path class="st0" d="M158.33,1602.74l40.17-40.17v17.48l-23.74,22.69H158.33z"/>
		</g>
	</g>
</g>
<g>
	<g>
		<g>
			<path class="st0" d="M1197.82,1076.31h33.84c0.42,0,1.06,0.54,1.94,1.63c0.88,1.09,1.97,2.81,3.27,5.18
				c1.3,2.36,2.76,5.43,4.38,9.21c1.62,3.78,3.36,8.33,5.21,13.65c-0.23,0.51-0.69,1.32-1.39,2.43c-0.7,1.11-1.46,2.25-2.29,3.4
				c-0.83,1.16-1.68,2.18-2.54,3.06c-0.86,0.88-1.56,1.32-2.12,1.32h-40.3V1076.31z M1230.13,1105.21l-6.11-15.22
				c-0.05-0.09-0.16-0.29-0.35-0.59c-0.19-0.3-0.38-0.61-0.59-0.94c-0.21-0.32-0.41-0.61-0.59-0.87c-0.19-0.25-0.3-0.38-0.35-0.38
				h-11.19v18.2h19.11C1230.1,1105.42,1230.13,1105.35,1230.13,1105.21z"/>
			<path class="st0" d="M1187.11,1125.7l-29-29v19.94h-10.88v-47.13l29,29v-21.75h10.88V1125.7z"/>
			<path class="st0" d="M1097.35,1116.19l39.88-39.88v39.88h-10.88v-12.69l-12.69,12.69H1097.35z"/>
		</g>
		<g>
			<path class="st0" d="M1294.96,1116.19v-39.88h13.2v29.18H1332l-6.11,10.7H1294.96z"/>
			<path class="st0" d="M1337.54,1116.19l39.88-39.88v39.88h-10.88v-12.69l-12.69,12.69H1337.54z"/>
			<path class="st0" d="M1482.23,1116.19v-39.88h39.88v39.88H1482.23z M1511.24,1105.32v-18.13h-18.13v18.13H1511.24z"/>
			<path class="st0" d="M1385.78,1090.81h29v-3.63h-29v-10.88h39.88v25.38h-29v14.5l-10.88,10.88V1090.81z"/>
			<path class="st0" d="M1530.77,1090.81h29v-3.63h-29v-10.88h39.88v25.38h-29v14.5l-10.88,10.88V1090.81z"/>
			<path class="st0" d="M1447.85,1116.19v-29h-14.5v-10.88h39.88v10.88h-14.5v29H1447.85z"/>
			<g>
				<path class="st0" d="M1589.7,1086.95v4.41h28.38v24.83h-39.02v-10.64h28.38V1102h-28.38v-25.69L1589.7,1086.95z"/>
				<polygon class="st0" points="1589.7,1086.95 1618.08,1086.95 1610.01,1076.31 1579.06,1076.31 1587.27,1086.95 				"/>
			</g>
		</g>
	</g>
	<g>
		<path class="st0" d="M1289.44,998.77h13.13v29.18h13.34v-29.18h13.2v34.11c-0.42,1.48-0.95,2.68-1.6,3.58
			c-0.65,0.9-1.23,1.63-1.74,2.19h-33.07c-0.51-0.56-1.07-1.29-1.67-2.19c-0.6-0.9-1.16-2.1-1.67-3.58L1289.44,998.77z"/>
		<path class="st0" d="M1143.9,1038.66v-39.88h39.88v39.88H1143.9z M1172.9,1027.78v-18.13h-18.13v18.13H1172.9z"/>
		<path class="st0" d="M1190.44,1038.66v-39.88l19.94,19.94l19.94-19.94v39.88h-10.88v-12.69l-9.06,9.06l-9.06-9.06v12.69H1190.44z"
			/>
		<path class="st0" d="M1236.99,1013.28h29v-3.63h-29v-10.88h39.88v25.38h-29v14.5l-10.88,10.88V1013.28z"/>
		<path class="st0" d="M1350.28,1038.66v-29h-14.5v-10.88h39.88v10.88h-14.5v29H1350.28z"/>
		<path class="st0" d="M1382.32,1009.65v-10.88h39.88v10.88H1382.32z M1382.32,1024.15v-10.88h39.88v10.88H1382.32z
			 M1382.32,1038.66v-10.88h39.88v10.88H1382.32z"/>
		<g>
			<path class="st0" d="M1491.68,1009.42v4.41h28.38v24.83h-39.02v-10.64h28.38v-3.55h-28.38v-25.69L1491.68,1009.42z"/>
			<polygon class="st0" points="1491.68,1009.42 1520.06,1009.42 1512,998.77 1481.04,998.77 1489.25,1009.42 			"/>
		</g>
		<path class="st0" d="M1471.75,1036.59l-0.27,12.94l-26.21-28.51l11.95-11.25c-0.09-0.21-0.24-0.43-0.48-0.67
			c-0.23-0.23-0.41-0.35-0.54-0.35h-13.35v29.9c0.04,0-11.36,0-11.44,0l-0.57-29.46l-1.97-1.46l5.34-8.96h32.8
			c0.47,0,1.09,0.4,1.87,1.21c0.78,0.81,1.56,1.74,2.32,2.8c0.76,1.06,1.46,2.11,2.1,3.15c0.64,1.04,1.04,1.77,1.21,2.19
			l-13.67,14.81L1471.75,1036.59z"/>
		<path class="st0" d="M1097.35,1038.66v-39.88h39.88v10.88h-29v18.13h29v10.88H1097.35z"/>
	</g>
</g>
<g>
	<polygon class="st0" points="1501.96,1621.76 1501.96,1581.49 1512.25,1570.31 1512.25,1621.76 	"/>
	<path class="st0" d="M1097.35,1621.76l39.88-39.88v39.88h-10.88v-12.69l-12.69,12.69H1097.35z"/>
	<path class="st0" d="M1397.84,1621.76v-39.88h39.88v39.88H1397.84z M1426.85,1610.89v-18.13h-18.13v18.13H1426.85z"/>
	<path class="st0" d="M1246.97,1592.76v-10.88h39.88v10.88H1246.97z M1246.97,1607.26v-10.88h39.88v10.88H1246.97z M1246.97,1621.76
		v-10.88h39.88v10.88H1246.97z"/>
	<path class="st0" d="M1521.55,1592.76v-10.88h39.88v10.88H1521.55z M1521.55,1607.26v-10.88h39.88v10.88H1521.55z M1521.55,1621.76
		v-10.88h39.88v10.88H1521.55z"/>
	<g>
		<path class="st0" d="M1584.03,1592.53v4.41h28.38v24.83h-39.02v-10.64h28.38v-3.55h-28.38v-25.69L1584.03,1592.53z"/>
		<polygon class="st0" points="1584.03,1592.53 1612.41,1592.53 1604.34,1581.88 1573.38,1581.88 1581.6,1592.53 		"/>
	</g>
	<g>
		<path class="st0" d="M1357.18,1592.53v4.41h28.38v24.83h-39.02v-10.64h28.38v-3.55h-28.38v-25.69L1357.18,1592.53z"/>
		<polygon class="st0" points="1357.18,1592.53 1385.56,1592.53 1377.5,1581.88 1346.54,1581.88 1354.75,1592.53 		"/>
	</g>
	<g>
		<path class="st0" d="M1308.58,1592.53v4.41h28.38v24.83h-39.02v-10.64h28.38v-3.55h-28.38v-25.69L1308.58,1592.53z"/>
		<polygon class="st0" points="1308.58,1592.53 1336.96,1592.53 1328.89,1581.88 1297.93,1581.88 1306.15,1592.53 		"/>
	</g>
	<path class="st0" d="M1489.9,1619.7l-0.27,12.94l-26.21-28.51l11.95-11.25c-0.09-0.21-0.24-0.43-0.48-0.67
		c-0.23-0.23-0.41-0.35-0.54-0.35h-13.35v29.9c0.04,0-11.36,0-11.44,0l-0.57-29.46l-1.97-1.46l5.34-8.96h32.8
		c0.47,0,1.09,0.4,1.87,1.21c0.78,0.81,1.56,1.74,2.32,2.8c0.76,1.06,1.46,2.11,2.1,3.15c0.64,1.04,1.04,1.77,1.21,2.19
		l-13.67,14.81L1489.9,1619.7z"/>
	<path class="st0" d="M1197.09,1621.76v-39.88h39.88v10.88h-29v18.13h29v10.88H1197.09z"/>
	<path class="st0" d="M1147.23,1621.76v-39.88h39.88v10.88h-29v18.13h29v10.88H1147.23z"/>
</g>
<g>
	<g>
		<path class="st0" d="M286.26,1176.19h10.88v14.5h18.13v-14.5l10.88-10.88v50.76h-10.88v-14.5h-18.13v14.5l-10.88,10.88V1176.19z"
			/>
		<path class="st0" d="M494.75,1217.04v-39.88h13.2v29.18h23.83l-6.11,10.7H494.75z"/>
		<path class="st0" d="M443.01,1217.04l39.88-39.88v39.88h-10.88v-12.69l-12.69,12.69H443.01z"/>
		<polygon class="st0" points="216.09,1216.69 216.09,1176.42 226.38,1165.24 226.38,1216.69 		"/>
		<path class="st0" d="M110.57,1188.04v-10.88h39.88v10.88H110.57z M110.57,1202.54v-10.88h39.88v10.88H110.57z M110.57,1217.04
			v-10.88h39.88v10.88H110.57z"/>
		<path class="st0" d="M336.46,1188.04v-10.88h39.88v10.88H336.46z M336.46,1202.54v-10.88h39.88v10.88H336.46z M336.46,1217.04
			v-10.88h39.88v10.88H336.46z"/>
		<path class="st0" d="M60.69,1191.66h29v-3.63h-29v-10.88h39.88v25.38h-29v14.5l-10.88,10.88V1191.66z"/>
		<path class="st0" d="M236.38,1191.66h29v-3.63h-29v-10.88h39.88v25.38h-29v14.5l-10.88,10.88V1191.66z"/>
		<path class="st0" d="M203.33,1214.98l-0.27,12.94l-26.21-28.51l11.95-11.25c-0.09-0.21-0.24-0.43-0.48-0.67
			c-0.23-0.23-0.41-0.35-0.54-0.35h-13.35v29.9c0.04,0-11.36,0-11.44,0l-0.57-29.46l-1.97-1.46l5.34-8.96h32.8
			c0.47,0,1.09,0.4,1.87,1.21c0.78,0.81,1.56,1.74,2.32,2.8c0.76,1.06,1.46,2.11,2.1,3.15c0.64,1.04,1.04,1.77,1.21,2.19
			l-13.67,14.81L203.33,1214.98z"/>
		<path class="st0" d="M430.25,1214.98l-0.27,12.94l-26.21-28.51l11.95-11.25c-0.09-0.21-0.24-0.43-0.48-0.67
			c-0.23-0.23-0.41-0.35-0.54-0.35h-13.35v29.9c0.04,0-11.36,0-11.44,0l-0.57-29.46l-1.97-1.46l5.34-8.96h32.8
			c0.47,0,1.09,0.4,1.87,1.21c0.78,0.81,1.56,1.74,2.32,2.8c0.76,1.06,1.46,2.11,2.1,3.15c0.64,1.04,1.04,1.77,1.21,2.19
			l-13.67,14.81L430.25,1214.98z"/>
	</g>
	<g>
		<path class="st0" d="M183.65,1293.45l-14.44-35.88h13.25l7.56,18.75l7.75-18.75h13.25l-17.32,39.88c-2-0.5-3.81-1.05-5.44-1.66
			C186.65,1295.19,185.11,1294.41,183.65,1293.45z"/>
		<path class="st0" d="M60.69,1257.57h33.84c0.42,0,1.06,0.54,1.94,1.63c0.88,1.09,1.97,2.81,3.27,5.18
			c1.3,2.36,2.76,5.43,4.38,9.21c1.62,3.78,3.36,8.33,5.21,13.65c-0.23,0.51-0.69,1.32-1.39,2.43c-0.7,1.11-1.46,2.25-2.29,3.4
			c-0.83,1.16-1.68,2.18-2.54,3.06c-0.86,0.88-1.56,1.32-2.12,1.32h-40.3V1257.57z M93,1286.48l-6.11-15.22
			c-0.05-0.09-0.16-0.29-0.35-0.59c-0.19-0.3-0.38-0.61-0.59-0.94c-0.21-0.32-0.41-0.61-0.59-0.87c-0.19-0.25-0.3-0.38-0.35-0.38
			H73.82v18.2h19.11C92.97,1286.69,93,1286.62,93,1286.48z"/>
		<polygon class="st0" points="221.74,1297.46 221.74,1257.18 232.03,1246 232.03,1297.46 		"/>
		<path class="st0" d="M119.33,1268.45v-10.88h39.88v10.88H119.33z M119.33,1282.95v-10.88h39.88v10.88H119.33z M119.33,1297.46
			v-10.88h39.88v10.88H119.33z"/>
		<path class="st0" d="M293.61,1268.45v-10.88h39.88v10.88H293.61z M293.61,1282.95v-10.88h39.88v10.88H293.61z M293.61,1297.46
			v-10.88h39.88v10.88H293.61z"/>
		<g>
			<path class="st0" d="M355.79,1268.22v4.41h28.38v24.83h-39.02v-10.64h28.38v-3.55h-28.38v-25.69L355.79,1268.22z"/>
			<polygon class="st0" points="355.79,1268.22 384.17,1268.22 376.1,1257.57 345.15,1257.57 353.36,1268.22 			"/>
		</g>
		<path class="st0" d="M244.12,1297.53v-39.88H284v10.88h-29v18.13h29v10.88H244.12z"/>
	</g>
</g>
<g>
	<g>
		<g>
			<path class="st0" d="M1538.9,1723.8h33.84c0.42,0,1.06,0.54,1.94,1.63c0.88,1.09,1.97,2.81,3.27,5.18
				c1.3,2.36,2.76,5.43,4.38,9.21c1.62,3.78,3.36,8.33,5.21,13.65c-0.23,0.51-0.69,1.32-1.39,2.43c-0.7,1.11-1.46,2.25-2.29,3.4
				c-0.83,1.16-1.68,2.18-2.54,3.06c-0.86,0.88-1.56,1.32-2.12,1.32h-40.3V1723.8z M1571.21,1752.71l-6.11-15.22
				c-0.05-0.09-0.16-0.29-0.35-0.59c-0.19-0.3-0.38-0.61-0.59-0.94c-0.21-0.32-0.41-0.61-0.59-0.87c-0.19-0.25-0.3-0.38-0.35-0.38
				h-11.19v18.2h19.11C1571.18,1752.91,1571.21,1752.84,1571.21,1752.71z"/>
			<path class="st0" d="M1529,1772.91l-29-29v19.94h-10.88v-47.13l29,29v-21.75H1529V1772.91z"/>
			<path class="st0" d="M1439.23,1763.68l39.88-39.88v39.88h-10.88v-12.69l-12.69,12.69H1439.23z"/>
		</g>
		<g>
			<path class="st0" d="M1266.33,1759.68l-14.44-35.88h13.25l7.56,18.75l7.75-18.75h13.25l-17.32,39.88c-2-0.5-3.81-1.05-5.44-1.66
				C1269.33,1761.42,1267.79,1760.64,1266.33,1759.68z"/>
			<path class="st0" d="M1303.71,1734.68v-10.88h39.88v10.88H1303.71z M1303.71,1749.18v-10.88h39.88v10.88H1303.71z
				 M1303.71,1763.68v-10.88h39.88v10.88H1303.71z"/>
			<path class="st0" d="M1146.37,1734.68v-10.88h39.88v10.88H1146.37z M1146.37,1749.18v-10.88h39.88v10.88H1146.37z
				 M1146.37,1763.68v-10.88h39.88v10.88H1146.37z"/>
			<g>
				<path class="st0" d="M1107.99,1734.44v4.41h28.38v24.83h-39.02v-10.64h28.38v-3.55h-28.38v-25.69L1107.99,1734.44z"/>
				<polygon class="st0" points="1107.99,1734.44 1136.37,1734.44 1128.31,1723.8 1097.35,1723.8 1105.56,1734.44 				"/>
			</g>
			<path class="st0" d="M1239.13,1761.62l-0.27,12.94l-26.21-28.51l11.95-11.25c-0.09-0.21-0.24-0.43-0.48-0.67
				c-0.23-0.23-0.41-0.35-0.54-0.35h-13.35v29.9c0.04,0-11.36,0-11.44,0l-0.57-29.46l-1.97-1.46l5.34-8.96h32.8
				c0.47,0,1.09,0.4,1.87,1.21c0.78,0.81,1.56,1.74,2.32,2.8c0.76,1.06,1.46,2.11,2.1,3.15c0.64,1.04,1.04,1.77,1.21,2.19
				l-13.67,14.81L1239.13,1761.62z"/>
			<path class="st0" d="M1396.47,1761.62l-0.27,12.94l-26.21-28.51l11.95-11.25c-0.09-0.21-0.24-0.43-0.48-0.67
				c-0.23-0.23-0.41-0.35-0.54-0.35h-13.35v29.9c0.04,0-11.36,0-11.44,0l-0.57-29.46l-1.97-1.46l5.34-8.96h32.8
				c0.47,0,1.09,0.4,1.87,1.21c0.78,0.81,1.56,1.74,2.32,2.8c0.76,1.06,1.46,2.11,2.1,3.15c0.64,1.04,1.04,1.77,1.21,2.19
				l-13.67,14.81L1396.47,1761.62z"/>
		</g>
	</g>
	<g>
		<g>
			<path class="st0" d="M1725.17,1845.22v-39.88l19.94,19.94l19.94-19.94v39.88h-10.88v-12.69l-9.06,9.06l-9.06-9.06v12.69H1725.17z
				"/>
			<path class="st0" d="M1495.08,1816.22v-10.88h39.88v10.88H1495.08z M1495.08,1830.72v-10.88h39.88v10.88H1495.08z
				 M1495.08,1845.22v-10.88h39.88v10.88H1495.08z"/>
			<path class="st0" d="M1775.06,1816.22v-10.88h39.88v10.88H1775.06z M1775.06,1830.72v-10.88h39.88v10.88H1775.06z
				 M1775.06,1845.22v-10.88h39.88v10.88H1775.06z"/>
			<path class="st0" d="M1889.32,1845.22v-29h-14.5v-10.88h39.88v10.88h-14.5v29H1889.32z"/>
			<polygon class="st0" points="1655.01,1845.22 1655.01,1804.95 1665.29,1793.77 1665.29,1845.22 			"/>
			<path class="st0" d="M1605.34,1805.34h13.13v29.18h13.34v-29.18h13.2v34.11c-0.42,1.48-0.95,2.68-1.6,3.58
				c-0.65,0.9-1.23,1.63-1.74,2.19h-33.07c-0.51-0.56-1.07-1.29-1.67-2.19c-0.6-0.9-1.16-2.1-1.67-3.58L1605.34,1805.34z"/>
			<path class="st0" d="M1864.82,1854.45l-29-29v19.94h-10.88v-47.13l29,29v-21.75h10.88V1854.45z"/>
			<path class="st0" d="M1675.29,1819.84h29v-3.63h-29v-10.88h39.88v25.38h-29v14.5l-10.88,10.88V1819.84z"/>
			<g>
				<path class="st0" d="M1544.96,1845.22v-39.88h39.88v39.88H1544.96z M1573.96,1834.35v-18.13h-18.13v18.13H1573.96z"/>
				<path class="st0" d="M1584.72,1833.1c-1.41-0.08-2.84-0.13-4.27-0.14c-1.6,0-3.2,0-4.75,0.43c0.01,0.09,0.03,0.17,0.05,0.28
					c0.58,2.71,0.04,6.42,0.08,9.22c0.01,0.83-0.08,1.59-0.24,2.3h2.11v20.08l11.73-20.36v-9.84h-4.71V1833.1z"/>
			</g>
		</g>
		<g>
			<path class="st0" d="M1250.17,1843.03c-0.5-0.9-0.96-2.09-1.39-3.58v-22.72l-1.79-1.6c0.65-1.95,1.35-3.72,2.08-5.31
				c0.73-1.6,1.56-3.09,2.49-4.48h8.2v29.18h6.07v-29.18h10.92v29.18h6.3v-29.18h10.98v34.11c-0.35,1.48-0.79,2.67-1.33,3.58
				c-0.54,0.9-1.02,1.63-1.44,2.19h-14.5v-4.03c-0.12,0.09-0.43,0.26-0.95,0.49c-0.52,0.23-1.15,0.5-1.88,0.8
				c-0.73,0.3-1.52,0.61-2.37,0.94c-0.85,0.33-1.64,0.63-2.37,0.9c-0.73,0.28-1.37,0.5-1.91,0.66c-0.54,0.16-0.87,0.24-0.98,0.24
				h-14.73C1251.14,1844.67,1250.67,1843.94,1250.17,1843.03z"/>
			<path class="st0" d="M1147.23,1816.22v-10.88h39.88v10.88H1147.23z M1147.23,1830.72v-10.88h39.88v10.88H1147.23z
				 M1147.23,1845.22v-10.88h39.88v10.88H1147.23z"/>
			<path class="st0" d="M1211.62,1845.22v-29h-14.5v-10.88H1237v10.88h-14.5v29H1211.62z"/>
			<path class="st0" d="M1420.63,1830.72v14.5h-10.88v-39.88h10.88v14.5l14.5-14.5h16.31l-19.94,19.94l23.57,23.57v16.32
				L1420.63,1830.72z"/>
			<path class="st0" d="M1137.23,1854.45l-29-29v19.94h-10.88v-47.13l29,29v-21.75h10.88V1854.45z"/>
			<path class="st0" d="M1304.03,1845.22v-39.88h39.88v39.88H1304.03z M1333.03,1834.35v-18.13h-18.13v18.13H1333.03z"/>
			<path class="st0" d="M1396.79,1843.16l-0.27,12.94l-26.21-28.51l11.95-11.25c-0.09-0.21-0.24-0.43-0.48-0.67
				c-0.23-0.23-0.41-0.35-0.54-0.35h-13.35v29.9c0.04,0-11.36,0-11.44,0l-0.57-29.46l-1.97-1.46l5.34-8.96h32.8
				c0.47,0,1.09,0.4,1.87,1.21c0.78,0.81,1.56,1.74,2.32,2.8c0.76,1.06,1.46,2.11,2.1,3.15c0.64,1.04,1.04,1.77,1.21,2.19
				l-13.67,14.81L1396.79,1843.16z"/>
		</g>
	</g>
</g>
<g>
	<g>
		<polygon class="st0" points="1204.83,319.13 1204.83,330.01 1204.83,369.89 1215.7,359.01 1215.7,344.51 1215.7,330.01 
			1233.83,330.01 1241.71,330.01 1241.71,319.13 		"/>
		<path class="st0" d="M1417.46,319.29h10.88v14.5h18.13v-14.5l10.88-10.88v50.76h-10.88v-14.5h-18.13v14.5l-10.88,10.88V319.29z"/>
		<path class="st0" d="M1266.21,359.01v-29h-14.5v-10.88h39.88v10.88h-14.5v29H1266.21z"/>
		<path class="st0" d="M1301.59,330.01v-10.88h39.88v10.88H1301.59z M1301.59,344.51v-10.88h39.88v10.88H1301.59z M1301.59,359.01
			v-10.88h39.88v10.88H1301.59z"/>
		<path class="st0" d="M1154.06,333.63h29v-3.63h-29v-10.88h39.88v25.38h-29v14.5l-10.88,10.88V333.63z"/>
		<path class="st0" d="M1104.18,359.01v-39.88h39.88v39.88H1104.18z M1133.19,348.13v-18.13h-18.13v18.13H1133.19z"/>
		<polygon class="st0" points="1467.34,358.86 1467.34,318.59 1477.63,307.41 1477.63,358.86 		"/>
		<path class="st0" d="M1498.5,344.51v14.5h-10.88v-39.88h10.88v14.5l14.5-14.5h16.31l-19.94,19.94l23.57,23.57v16.32L1498.5,344.51
			z"/>
		<path class="st0" d="M1542.95,359.01l39.88-39.88v39.88h-10.88v-12.69l-12.69,12.69H1542.95z"/>
		<path class="st0" d="M1379.47,347.49l-11.74,11.74h-16.26l19.87-19.87l-10.84-10.84v-16.26l18.96,18.96l11.74-11.74h16.26
			l-19.87,19.87l12.64,12.64v16.26L1379.47,347.49z"/>
	</g>
	<g>
		<path class="st0" d="M1460.51,418.63h10.88v21.75l29-29v47.13h-10.88v-19.94l-29,29V418.63z"/>
		<polygon class="st0" points="1198,418.93 1198,429.81 1198,469.69 1208.87,458.82 1208.87,444.31 1208.87,429.81 1227,429.81 
			1234.88,429.81 1234.88,418.93 		"/>
		<path class="st0" d="M1410.63,419.09h10.88v14.5h18.13v-14.5l10.88-10.88v50.76h-10.88v-14.5h-18.13v14.5l-10.88,10.88V419.09z"/>
		<path class="st0" d="M1259.38,458.82v-29h-14.5v-10.88h39.88v10.88h-14.5v29H1259.38z"/>
		<path class="st0" d="M1294.76,429.81v-10.88h39.88v10.88H1294.76z M1294.76,444.31v-10.88h39.88v10.88H1294.76z M1294.76,458.82
			v-10.88h39.88v10.88H1294.76z"/>
		<path class="st0" d="M1147.23,433.44h29v-3.63h-29v-10.88h39.88v25.38h-29v14.5l-10.88,10.88V433.44z"/>
		<path class="st0" d="M1097.35,458.82v-39.88h39.88v39.88H1097.35z M1126.36,447.94v-18.13h-18.13v18.13H1126.36z"/>
		<path class="st0" d="M1521.27,444.31v14.5h-10.88v-39.88h10.88v14.5l14.5-14.5h16.31l-19.94,19.94l23.57,23.57v16.32
			L1521.27,444.31z"/>
		<path class="st0" d="M1565.71,458.81l39.88-39.88v39.88h-10.88v-12.69l-12.69,12.69H1565.71z"/>
		<path class="st0" d="M1372.64,447.3l-11.74,11.74h-16.26l19.87-19.87l-10.84-10.84v-16.26l18.96,18.96l11.74-11.74h16.26
			l-19.87,19.87l12.64,12.64v16.26L1372.64,447.3z"/>
	</g>
</g>
<g>
	<g>
		<g>
			<g>
				<path class="st0" d="M108.11,68.54h36.96l-6.04,10.7h-17.79v4.45h19.25l-6.04,10.7h-13.2v7.71c0.05,0-0.21,0.15-0.76,0.45
					c-0.56,0.3-1.29,0.69-2.19,1.18s-1.89,1-2.95,1.53c-1.07,0.53-2.07,1.04-3.02,1.53c-0.95,0.49-1.77,0.88-2.47,1.18
					c-0.69,0.3-1.09,0.45-1.18,0.45h-0.56V79.24V68.54z"/>
			</g>
		</g>
		<g>
			<g>
				<path class="st0" d="M155.07,68.54h36.96l-6.04,10.7H168.2v4.45h19.25l-6.04,10.7h-13.2v7.71c0.05,0-0.21,0.15-0.76,0.45
					c-0.56,0.3-1.29,0.69-2.19,1.18s-1.89,1-2.95,1.53c-1.07,0.53-2.07,1.04-3.02,1.53c-0.95,0.49-1.77,0.88-2.47,1.18
					c-0.69,0.3-1.09,0.45-1.18,0.45h-0.56V79.24V68.54z"/>
			</g>
		</g>
		<path class="st0" d="M58.21,108.42V68.54H98.1v39.88H58.21z M87.22,97.54V79.42H69.09v18.13H87.22z"/>
		<polygon class="st0" points="201.88,108.42 201.88,68.15 212.16,56.97 212.16,108.42 		"/>
		<path class="st0" d="M272.05,79.42V68.54h39.88v10.88H272.05z M272.05,93.92V83.04h39.88v10.88H272.05z M272.05,108.42V97.54
			h39.88v10.88H272.05z"/>
		<path class="st0" d="M222.16,108.42V68.54h39.88v10.88h-29v18.13h29v10.88H222.16z"/>
	</g>
	<g>
		<path class="st0" d="M288.31,193.14v-39.88l19.94,19.94l19.94-19.94v39.88h-10.88v-12.69l-9.06,9.06l-9.06-9.06v12.69H288.31z"/>
		<path class="st0" d="M58.21,164.14v-10.88H98.1v10.88H58.21z M58.21,178.64v-10.88H98.1v10.88H58.21z M58.21,193.14v-10.88H98.1
			v10.88H58.21z"/>
		<path class="st0" d="M338.19,164.14v-10.88h39.88v10.88H338.19z M338.19,178.64v-10.88h39.88v10.88H338.19z M338.19,193.14v-10.88
			h39.88v10.88H338.19z"/>
		<path class="st0" d="M452.46,193.14v-29h-14.5v-10.88h39.88v10.88h-14.5v29H452.46z"/>
		<polygon class="st0" points="218.15,193.14 218.15,152.87 228.43,141.69 228.43,193.14 		"/>
		<path class="st0" d="M168.47,153.26h13.13v29.18h13.34v-29.18h13.2v34.11c-0.42,1.48-0.95,2.68-1.6,3.58
			c-0.65,0.9-1.23,1.63-1.74,2.19h-33.07c-0.51-0.56-1.07-1.29-1.67-2.19c-0.6-0.9-1.16-2.1-1.67-3.58L168.47,153.26z"/>
		<path class="st0" d="M427.96,202.37l-29-29v19.94h-10.88v-47.13l29,29v-21.75h10.88V202.37z"/>
		<path class="st0" d="M238.43,167.77h29v-3.63h-29v-10.88h39.88v25.38h-29v14.5l-10.88,10.88V167.77z"/>
		<g>
			<path class="st0" d="M108.1,193.14v-39.88h39.88v39.88H108.1z M137.1,182.27v-18.13h-18.13v18.13H137.1z"/>
			<path class="st0" d="M147.86,181.03c-1.41-0.08-2.84-0.13-4.27-0.14c-1.6,0-3.2,0-4.75,0.43c0.01,0.09,0.03,0.17,0.05,0.28
				c0.58,2.71,0.04,6.42,0.08,9.22c0.01,0.83-0.08,1.59-0.24,2.3h2.11v20.08l11.73-20.36V183h-4.71V181.03z"/>
		</g>
	</g>
</g>
<g>
	<g>
		<g>
			<path class="st0" d="M1575.57,134.64v-29h-14.5V94.76h39.88v10.88h-14.5v29H1575.57z"/>
			<path class="st0" d="M1610.94,134.64l39.88-39.88v39.88h-10.88v-12.69l-12.69,12.69H1610.94z"/>
		</g>
		<g>
			<path class="st0" d="M1406.64,94.76h10.88v14.5h18.13v-14.5l10.88-10.88v50.76h-10.88v-14.5h-18.13v14.5l-10.88,10.88V94.76z"/>
			<path class="st0" d="M1247.53,105.64V94.76h39.88v10.88H1247.53z M1247.53,120.14v-10.88h39.88v10.88H1247.53z M1247.53,134.64
				v-10.88h39.88v10.88H1247.53z"/>
			<path class="st0" d="M1147.23,105.64V94.76h39.88v10.88H1147.23z M1147.23,120.14v-10.88h39.88v10.88H1147.23z M1147.23,134.64
				v-10.88h39.88v10.88H1147.23z"/>
			<path class="st0" d="M1111.85,134.64v-29h-14.5V94.76h39.88v10.88h-14.5v29H1111.85z"/>
			<path class="st0" d="M1356.7,134.64V94.76h39.88v39.88H1356.7z M1385.7,123.76v-18.13h-18.13v18.13H1385.7z"/>
			<path class="st0" d="M1490.75,118.91l-13.67-14.81c0.17-0.42,0.57-1.15,1.21-2.19c0.64-1.04,1.33-2.09,2.1-3.15
				c0.76-1.06,1.54-1.99,2.32-2.8c0.78-0.8,1.41-1.21,1.87-1.21h32.8l5.34,8.96l-1.97,1.46l-0.57,29.46c-0.08,0-11.48,0-11.44,0
				v-29.9h-13.35c-0.13,0-0.31,0.12-0.54,0.35c-0.23,0.23-0.39,0.46-0.48,0.67l11.95,11.25l-26.21,28.51l-0.27-12.94L1490.75,118.91
				z"/>
			<path class="st0" d="M1197.18,134.93l40.17-40.17v17.48l-23.74,22.69H1197.18z"/>
			<polygon class="st0" points="1455.98,134.99 1455.98,94.72 1466.26,83.54 1466.26,134.99 			"/>
			<g>
				<path class="st0" d="M1316.69,109.26h19v-3.63h-19V94.76h29.88v25.38h-19v14.5l-10.88,10.88V109.26z"/>
				<path class="st0" d="M1327.46,124.68l-10.88,9.96v-14.5h-19v-14.5l10.31-10.88h19.57v10.88h-19v3.63h19V124.68z"/>
				<rect x="1316.58" y="103.23" class="st0" width="10.88" height="16.91"/>
			</g>
		</g>
	</g>
	<g>
		<path class="st0" d="M1232.18,187.26v-10.88h39.88v10.88H1232.18z M1232.18,201.76v-10.88h39.88v10.88H1232.18z M1232.18,216.26
			v-10.88h39.88v10.88H1232.18z"/>
		<g>
			<path class="st0" d="M1097.35,190.88h29v-3.63h-29v-10.88h39.88v25.38h-29h-10.88V190.88z"/>
			<path class="st0" d="M1097.35,205.38h29v-3.63h-29v-10.88h39.88v25.38h-29h-10.88V205.38z"/>
		</g>
		<path class="st0" d="M1282.07,216.26v-39.88h39.88v39.88H1282.07z M1311.08,205.38v-18.13h-18.13v18.13H1311.08z"/>
		<path class="st0" d="M1497.96,176.03h10.88v14.5h18.13v-14.5l10.88-10.88v50.76h-10.88v-14.5h-18.13v14.5l-10.88,10.88V176.03z"/>
		<path class="st0" d="M1346.71,215.75v-29h-14.5v-10.88h39.88v10.88h-14.5v29H1346.71z"/>
		<path class="st0" d="M1382.09,186.75v-10.88h39.88v10.88H1382.09z M1382.09,201.25v-10.88h39.88v10.88H1382.09z M1382.09,215.75
			v-10.88h39.88v10.88H1382.09z"/>
		<polygon class="st0" points="1547.84,215.61 1547.84,175.34 1558.13,164.16 1558.13,215.61 		"/>
		<path class="st0" d="M1579,201.25v14.5h-10.88v-39.88H1579v14.5l14.5-14.5h16.31l-19.94,19.94l23.57,23.57v16.32L1579,201.25z"/>
		<path class="st0" d="M1623.45,215.75l39.88-39.88v39.88h-10.88v-12.69l-12.69,12.69H1623.45z"/>
		<path class="st0" d="M1459.97,204.24l-11.74,11.74h-16.26l19.87-19.87L1441,185.27v-16.26l18.96,18.96l11.74-11.74h16.26
			l-19.87,19.87l12.64,12.64V225L1459.97,204.24z"/>
		<polygon class="st0" points="1147.23,216.61 1147.23,176.34 1157.52,165.16 1157.52,216.61 		"/>
		<path class="st0" d="M1215.05,205.09v-29.62h-39.88v29.62h-7.35v9.84l11.73,20.36v-19.94h31.12v19.94l11.73-20.36v-9.84H1215.05z
			 M1186.05,186.35h18.13v18.13h-18.13V186.35z"/>
	</g>
</g>
<g>
	<g>
		<path class="st0" d="M552.81,505.93h10.88v21.75l29-29v47.13h-10.88v-19.94l-29,29V505.93z"/>
		<g>
			<path class="st0" d="M367.5,506.23h10.88v14.5h18.13v-14.5l10.88-10.88v50.76h-10.88v-14.5h-18.13v14.5l-10.88,10.88V506.23z"/>
			<path class="st0" d="M208.39,517.11v-10.88h39.88v10.88H208.39z M208.39,531.61v-10.88h39.88v10.88H208.39z M208.39,546.11
				v-10.88h39.88v10.88H208.39z"/>
			<path class="st0" d="M108.09,517.11v-10.88h39.88v10.88H108.09z M108.09,531.61v-10.88h39.88v10.88H108.09z M108.09,546.11
				v-10.88h39.88v10.88H108.09z"/>
			<path class="st0" d="M72.72,546.11v-29h-14.5v-10.88h39.88v10.88h-14.5v29H72.72z"/>
			<path class="st0" d="M317.56,546.11v-39.88h39.88v39.88H317.56z M346.57,535.23v-18.13h-18.13v18.13H346.57z"/>
			<path class="st0" d="M417.44,505.93h10.88v21.75l29-29v47.13h-10.88v-19.94l-29,29V505.93z"/>
			<path class="st0" d="M480.84,530.38l-13.67-14.81c0.17-0.42,0.57-1.15,1.21-2.19c0.64-1.04,1.33-2.09,2.1-3.15
				c0.76-1.06,1.54-1.99,2.32-2.8c0.78-0.8,1.41-1.21,1.87-1.21h32.8l5.34,8.96l-1.97,1.46l-0.57,29.46c-0.08,0-11.48,0-11.44,0
				v-29.9h-13.35c-0.13,0-0.31,0.12-0.54,0.35c-0.23,0.23-0.39,0.46-0.48,0.67l11.95,11.25l-26.21,28.51l-0.27-12.94L480.84,530.38z
				"/>
			<path class="st0" d="M158.04,546.4l40.17-40.17v17.48l-23.74,22.69H158.04z"/>
			<g>
				<path class="st0" d="M277.55,520.73h19v-3.63h-19v-10.88h29.88v25.38h-19v14.5l-10.88,10.88V520.73z"/>
				<path class="st0" d="M288.32,536.15l-10.88,9.96v-14.5h-19v-14.5l10.31-10.88h19.57v10.88h-19v3.63h19V536.15z"/>
				<rect x="277.44" y="514.7" class="st0" width="10.88" height="16.91"/>
			</g>
		</g>
	</g>
	<g>
		<path class="st0" d="M226.4,600.21v-10.88h39.88v10.88H226.4z M226.4,614.71v-10.88h39.88v10.88H226.4z M226.4,629.22v-10.88
			h39.88v10.88H226.4z"/>
		<g>
			<path class="st0" d="M58.21,603.84h29v-3.63h-29v-10.88H98.1v25.38h-29H58.21V603.84z"/>
			<path class="st0" d="M58.21,618.34h29v-3.63h-29v-10.88H98.1v25.38h-29H58.21V618.34z"/>
		</g>
		<path class="st0" d="M276.3,629.22v-39.88h39.88v39.88H276.3z M305.3,618.34v-18.13h-18.13v18.13H305.3z"/>
		<path class="st0" d="M111.15,589.04h10.88v21.75l29-29v47.13h-10.88v-19.94l-29,29V589.04z"/>
		<path class="st0" d="M542.72,589.04h10.88v21.75l29-29v47.13h-10.88v-19.94l-29,29V589.04z"/>
		<path class="st0" d="M492.19,588.99h10.88v14.5h18.13v-14.5l10.88-10.88v50.76h-10.88v-14.5h-18.13v14.5l-10.88,10.88V588.99z"/>
		<path class="st0" d="M340.94,628.71v-29h-14.5v-10.88h39.88v10.88h-14.5v29H340.94z"/>
		<path class="st0" d="M376.32,599.71v-10.88h39.88v10.88H376.32z M376.32,614.21v-10.88h39.88v10.88H376.32z M376.32,628.71v-10.88
			h39.88v10.88H376.32z"/>
		<path class="st0" d="M603.67,614.21v14.5H592.8v-39.88h10.88v14.5l14.5-14.5h16.31l-19.94,19.94l23.57,23.57v16.32L603.67,614.21z
			"/>
		<path class="st0" d="M648.12,628.71L688,588.83v39.88h-10.88v-12.69l-12.69,12.69H648.12z"/>
		<path class="st0" d="M454.19,617.19l-11.74,11.74H426.2l19.87-19.87l-10.84-10.84v-16.26l18.96,18.96l11.74-11.74h16.26
			l-19.87,19.87l12.64,12.64v16.26L454.19,617.19z"/>
		<path class="st0" d="M209.28,618.05v-29.62h-39.88v29.62h-7.35v9.84l11.73,20.36v-19.94h31.12v19.94l11.73-20.36v-9.84H209.28z
			 M180.27,599.31h18.13v18.13h-18.13V599.31z"/>
	</g>
</g>
<g>
	<g>
		<g>
			<path class="st0" d="M548.64,399.71v-39.88l19.94,19.94l19.94-19.94v39.88h-10.88v-12.69l-9.06,9.06l-9.06-9.06v12.69H548.64z"/>
			<path class="st0" d="M318.55,370.7v-10.88h39.88v10.88H318.55z M318.55,385.2v-10.88h39.88v10.88H318.55z M318.55,399.71v-10.88
				h39.88v10.88H318.55z"/>
			<path class="st0" d="M598.52,370.7v-10.88h39.88v10.88H598.52z M598.52,385.2v-10.88h39.88v10.88H598.52z M598.52,399.71v-10.88
				h39.88v10.88H598.52z"/>
			<path class="st0" d="M712.79,399.71v-29h-14.5v-10.88h39.88v10.88h-14.5v29H712.79z"/>
			<polygon class="st0" points="478.48,399.71 478.48,359.43 488.76,348.25 488.76,399.71 			"/>
			<path class="st0" d="M428.81,359.83h13.13v29.18h13.34v-29.18h13.2v34.11c-0.42,1.48-0.95,2.68-1.6,3.58
				c-0.65,0.9-1.23,1.63-1.74,2.19h-33.07c-0.51-0.56-1.07-1.29-1.67-2.19c-0.6-0.9-1.16-2.1-1.67-3.58L428.81,359.83z"/>
			<path class="st0" d="M688.29,408.93l-29-29v19.94h-10.88v-47.13l29,29v-21.75h10.88V408.93z"/>
			<path class="st0" d="M498.76,374.33h29v-3.63h-29v-10.88h39.88v25.38h-29v14.5l-10.88,10.88V374.33z"/>
			<g>
				<path class="st0" d="M368.43,399.71v-39.88h39.88v39.88H368.43z M397.43,388.83V370.7h-18.13v18.13H397.43z"/>
				<path class="st0" d="M408.19,387.59c-1.41-0.08-2.84-0.13-4.27-0.14c-1.6,0-3.2,0-4.75,0.43c0.01,0.09,0.03,0.17,0.05,0.28
					c0.58,2.71,0.04,6.42,0.08,9.22c0.01,0.83-0.08,1.59-0.24,2.3h2.11v20.08l11.73-20.36v-9.84h-4.71V387.59z"/>
			</g>
		</g>
		<g>
			<polygon class="st0" points="110.2,399.71 110.2,359.43 120.48,348.25 120.48,399.71 			"/>
			<path class="st0" d="M130.15,359.83h33.84c0.42,0,1.06,0.54,1.94,1.63c0.88,1.09,1.97,2.81,3.27,5.18
				c1.3,2.36,2.76,5.43,4.38,9.21c1.62,3.78,3.36,8.33,5.21,13.65c-0.23,0.51-0.69,1.32-1.39,2.43c-0.7,1.11-1.46,2.25-2.29,3.4
				c-0.83,1.16-1.68,2.18-2.54,3.06c-0.86,0.88-1.56,1.32-2.12,1.32h-40.3V359.83z M162.46,388.73l-6.11-15.22
				c-0.05-0.09-0.16-0.29-0.35-0.59c-0.19-0.3-0.38-0.61-0.59-0.94c-0.21-0.32-0.41-0.61-0.59-0.87c-0.19-0.25-0.3-0.38-0.35-0.38
				h-11.19v18.2h19.11C162.43,388.94,162.46,388.87,162.46,388.73z"/>
			<path class="st0" d="M188.78,370.7v-10.88h39.88v10.88H188.78z M188.78,385.21v-10.88h39.88v10.88H188.78z M188.78,399.71v-10.88
				h39.88v10.88H188.78z"/>
			<path class="st0" d="M238.66,399.71v-39.88h39.88v39.88H238.66z M267.67,388.83V370.7h-18.13v18.13H267.67z"/>
			<path class="st0" d="M72.65,395.7l-14.44-35.88h13.25l7.56,18.75l7.75-18.75h13.25l-17.32,39.88c-2-0.5-3.81-1.05-5.44-1.66
				C75.65,397.44,74.11,396.66,72.65,395.7z"/>
		</g>
	</g>
	<g>
		<g>
			<path class="st0" d="M645.59,280.13h33.84c0.42,0,1.06,0.54,1.94,1.63c0.88,1.09,1.97,2.81,3.27,5.18
				c1.3,2.36,2.76,5.43,4.38,9.21c1.62,3.78,3.36,8.33,5.21,13.65c-0.23,0.51-0.69,1.32-1.39,2.43c-0.7,1.11-1.46,2.25-2.29,3.4
				s-1.68,2.18-2.54,3.06c-0.86,0.88-1.56,1.32-2.12,1.32h-40.3V280.13z M677.89,309.03l-6.11-15.22c-0.05-0.09-0.16-0.29-0.35-0.59
				c-0.19-0.3-0.38-0.61-0.59-0.94c-0.21-0.32-0.41-0.61-0.59-0.87c-0.19-0.25-0.3-0.38-0.35-0.38h-11.19v18.2h19.11
				C677.87,309.24,677.89,309.17,677.89,309.03z"/>
			<path class="st0" d="M629.68,329.24l-29-29v19.94H589.8v-47.13l29,29v-21.75h10.88V329.24z"/>
			<path class="st0" d="M539.92,320.01l39.88-39.88v39.88h-10.88v-12.69l-12.69,12.69H539.92z"/>
		</g>
		<g>
			<path class="st0" d="M448.21,329.24l-29-29v19.94h-10.88v-47.13l29,29v-21.75h10.88V329.24z"/>
			<path class="st0" d="M308.56,280.13h10.88v14.5h18.13v-14.5l10.88-10.88v50.76h-10.88v-14.5h-18.13v14.5l-10.88,10.88V280.13z"/>
			<path class="st0" d="M208.39,291.01v-10.88h39.88v10.88H208.39z M208.39,305.51v-10.88h39.88v10.88H208.39z M208.39,320.01
				v-10.88h39.88v10.88H208.39z"/>
			<path class="st0" d="M459.01,291.01v-10.88h39.88v10.88H459.01z M459.01,305.51v-10.88h39.88v10.88H459.01z M459.01,320.01
				v-10.88h39.88v10.88H459.01z"/>
			<path class="st0" d="M108.09,291.01v-10.88h39.88v10.88H108.09z M108.09,305.51v-10.88h39.88v10.88H108.09z M108.09,320.01
				v-10.88h39.88v10.88H108.09z"/>
			<path class="st0" d="M72.72,320.01v-29h-14.5v-10.88h39.88v10.88h-14.5v29H72.72z"/>
			<path class="st0" d="M358.44,320.01v-39.88h39.88v39.88H358.44z M387.45,309.14v-18.13h-18.13v18.13H387.45z"/>
			<path class="st0" d="M161.36,320.01v-39.88h13.2v29.18h23.83l-6.11,10.7H161.36z"/>
			<path class="st0" d="M258.27,294.63h29v-3.63h-29v-10.88h39.88v25.38h-29v14.5l-10.88,10.88V294.63z"/>
		</g>
	</g>
</g>
</svg>
